<svg xmlns="http://www.w3.org/2000/svg" width="200" height="7340" viewBox="0 0 100 3670">
<style>.code{fill:#333}</style>
<rect class="code" x="0" y="0" width="5" height="5" />
<rect class="code" x="0" y="20" width="111" height="5" />
<rect class="code" x="0" y="40" width="2" height="5" />
<rect class="code" x="1" y="50" width="43" height="5" />
<rect class="code" x="1" y="60" width="2" height="5" />
<rect class="code" x="1" y="70" width="43" height="5" />
<rect class="code" x="1" y="80" width="2" height="5" />
<rect class="code" x="1" y="90" width="73" height="5" />
<rect class="code" x="1" y="100" width="50" height="5" />
<rect class="code" x="1" y="110" width="2" height="5" />
<rect class="code" x="0" y="130" width="48" height="5" />
<rect class="code" x="0" y="150" width="77" height="5" />
<rect class="code" x="0" y="160" width="77" height="5" />
<rect class="code" x="0" y="170" width="86" height="5" />
<rect class="code" x="0" y="180" width="77" height="5" />
<rect class="code" x="0" y="190" width="68" height="5" />
<rect class="code" x="0" y="200" width="74" height="5" />
<rect class="code" x="0" y="220" width="3" height="5" />
<rect class="code" x="1" y="230" width="48" height="5" />
<rect class="code" x="1" y="240" width="2" height="5" />
<rect class="code" x="1" y="250" width="49" height="5" />
<rect class="code" x="1" y="260" width="2" height="5" />
<rect class="code" x="1" y="270" width="53" height="5" />
<rect class="code" x="1" y="280" width="2" height="5" />
<rect class="code" x="1" y="290" width="50" height="5" />
<rect class="code" x="1" y="300" width="2" height="5" />
<rect class="code" x="1" y="310" width="77" height="5" />
<rect class="code" x="1" y="320" width="68" height="5" />
<rect class="code" x="1" y="330" width="19" height="5" />
<rect class="code" x="1" y="340" width="2" height="5" />
<rect class="code" x="1" y="350" width="6" height="5" />
<rect class="code" x="1" y="360" width="20" height="5" />
<rect class="code" x="1" y="370" width="34" height="5" />
<rect class="code" x="1" y="380" width="42" height="5" />
<rect class="code" x="1" y="390" width="7" height="5" />
<rect class="code" x="1" y="400" width="2" height="5" />
<rect class="code" x="1" y="410" width="58" height="5" />
<rect class="code" x="1" y="420" width="64" height="5" />
<rect class="code" x="1" y="430" width="2" height="5" />
<rect class="code" x="1" y="440" width="6" height="5" />
<rect class="code" x="1" y="450" width="43" height="5" />
<rect class="code" x="1" y="460" width="69" height="5" />
<rect class="code" x="1" y="470" width="85" height="5" />
<rect class="code" x="1" y="480" width="7" height="5" />
<rect class="code" x="1" y="490" width="2" height="5" />
<rect class="code" x="1" y="500" width="80" height="5" />
<rect class="code" x="1" y="510" width="2" height="5" />
<rect class="code" x="1" y="520" width="70" height="5" />
<rect class="code" x="1" y="530" width="49" height="5" />
<rect class="code" x="1" y="540" width="90" height="5" />
<rect class="code" x="1" y="550" width="98" height="5" />
<rect class="code" x="1" y="560" width="2" height="5" />
<rect class="code" x="1" y="570" width="47" height="5" />
<rect class="code" x="1" y="580" width="52" height="5" />
<rect class="code" x="1" y="590" width="2" height="5" />
<rect class="code" x="0" y="600" width="55" height="5" />
<rect class="code" x="0" y="610" width="2" height="5" />
<rect class="code" x="4" y="620" width="3" height="5" />
<rect class="code" x="5" y="630" width="28" height="5" />
<rect class="code" x="5" y="640" width="2" height="5" />
<rect class="code" x="4" y="650" width="24" height="5" />
<rect class="code" x="4" y="670" width="30" height="5" />
<rect class="code" x="4" y="680" width="31" height="5" />
<rect class="code" x="4" y="690" width="29" height="5" />
<rect class="code" x="4" y="700" width="29" height="5" />
<rect class="code" x="4" y="720" width="67" height="5" />
<rect class="code" x="4" y="740" width="3" height="5" />
<rect class="code" x="5" y="750" width="14" height="5" />
<rect class="code" x="5" y="760" width="2" height="5" />
<rect class="code" x="5" y="770" width="77" height="5" />
<rect class="code" x="5" y="780" width="2" height="5" />
<rect class="code" x="4" y="790" width="71" height="5" />
<rect class="code" x="4" y="800" width="2" height="5" />
<rect class="code" x="8" y="810" width="58" height="5" />
<rect class="code" x="4" y="820" width="2" height="5" />
<rect class="code" x="4" y="840" width="3" height="5" />
<rect class="code" x="5" y="850" width="25" height="5" />
<rect class="code" x="5" y="860" width="2" height="5" />
<rect class="code" x="5" y="870" width="30" height="5" />
<rect class="code" x="5" y="880" width="2" height="5" />
<rect class="code" x="5" y="890" width="35" height="5" />
<rect class="code" x="5" y="900" width="33" height="5" />
<rect class="code" x="5" y="910" width="2" height="5" />
<rect class="code" x="4" y="920" width="25" height="5" />
<rect class="code" x="4" y="930" width="2" height="5" />
<rect class="code" x="8" y="940" width="31" height="5" />
<rect class="code" x="8" y="960" width="73" height="5" />
<rect class="code" x="4" y="970" width="2" height="5" />
<rect class="code" x="4" y="990" width="3" height="5" />
<rect class="code" x="5" y="1000" width="57" height="5" />
<rect class="code" x="5" y="1010" width="2" height="5" />
<rect class="code" x="5" y="1020" width="78" height="5" />
<rect class="code" x="5" y="1030" width="2" height="5" />
<rect class="code" x="4" y="1040" width="26" height="5" />
<rect class="code" x="4" y="1050" width="2" height="5" />
<rect class="code" x="8" y="1060" width="57" height="5" />
<rect class="code" x="4" y="1070" width="2" height="5" />
<rect class="code" x="4" y="1090" width="3" height="5" />
<rect class="code" x="5" y="1100" width="43" height="5" />
<rect class="code" x="5" y="1110" width="2" height="5" />
<rect class="code" x="5" y="1120" width="64" height="5" />
<rect class="code" x="5" y="1130" width="2" height="5" />
<rect class="code" x="4" y="1140" width="33" height="5" />
<rect class="code" x="4" y="1150" width="2" height="5" />
<rect class="code" x="8" y="1160" width="27" height="5" />
<rect class="code" x="4" y="1170" width="2" height="5" />
<rect class="code" x="4" y="1190" width="3" height="5" />
<rect class="code" x="5" y="1200" width="19" height="5" />
<rect class="code" x="5" y="1210" width="2" height="5" />
<rect class="code" x="5" y="1220" width="40" height="5" />
<rect class="code" x="5" y="1230" width="2" height="5" />
<rect class="code" x="5" y="1240" width="35" height="5" />
<rect class="code" x="5" y="1250" width="2" height="5" />
<rect class="code" x="5" y="1260" width="66" height="5" />
<rect class="code" x="5" y="1270" width="2" height="5" />
<rect class="code" x="4" y="1280" width="35" height="5" />
<rect class="code" x="4" y="1290" width="2" height="5" />
<rect class="code" x="8" y="1300" width="39" height="5" />
<rect class="code" x="4" y="1310" width="2" height="5" />
<rect class="code" x="4" y="1330" width="3" height="5" />
<rect class="code" x="5" y="1340" width="31" height="5" />
<rect class="code" x="5" y="1350" width="2" height="5" />
<rect class="code" x="5" y="1360" width="40" height="5" />
<rect class="code" x="5" y="1370" width="2" height="5" />
<rect class="code" x="5" y="1380" width="53" height="5" />
<rect class="code" x="5" y="1390" width="2" height="5" />
<rect class="code" x="4" y="1400" width="35" height="5" />
<rect class="code" x="4" y="1410" width="2" height="5" />
<rect class="code" x="8" y="1420" width="39" height="5" />
<rect class="code" x="4" y="1430" width="2" height="5" />
<rect class="code" x="4" y="1450" width="3" height="5" />
<rect class="code" x="5" y="1460" width="19" height="5" />
<rect class="code" x="5" y="1470" width="2" height="5" />
<rect class="code" x="5" y="1480" width="41" height="5" />
<rect class="code" x="5" y="1490" width="42" height="5" />
<rect class="code" x="5" y="1500" width="2" height="5" />
<rect class="code" x="4" y="1510" width="43" height="5" />
<rect class="code" x="4" y="1520" width="2" height="5" />
<rect class="code" x="8" y="1530" width="40" height="5" />
<rect class="code" x="4" y="1540" width="2" height="5" />
<rect class="code" x="4" y="1560" width="3" height="5" />
<rect class="code" x="5" y="1570" width="17" height="5" />
<rect class="code" x="5" y="1580" width="2" height="5" />
<rect class="code" x="5" y="1590" width="77" height="5" />
<rect class="code" x="5" y="1600" width="62" height="5" />
<rect class="code" x="5" y="1610" width="2" height="5" />
<rect class="code" x="5" y="1620" width="47" height="5" />
<rect class="code" x="5" y="1630" width="45" height="5" />
<rect class="code" x="5" y="1640" width="2" height="5" />
<rect class="code" x="4" y="1650" width="34" height="5" />
<rect class="code" x="4" y="1660" width="2" height="5" />
<rect class="code" x="8" y="1670" width="22" height="5" />
<rect class="code" x="8" y="1690" width="34" height="5" />
<rect class="code" x="12" y="1700" width="82" height="5" />
<rect class="code" x="8" y="1710" width="2" height="5" />
<rect class="code" x="8" y="1730" width="33" height="5" />
<rect class="code" x="12" y="1740" width="27" height="5" />
<rect class="code" x="8" y="1750" width="2" height="5" />
<rect class="code" x="8" y="1770" width="32" height="5" />
<rect class="code" x="8" y="1790" width="24" height="5" />
<rect class="code" x="12" y="1800" width="28" height="5" />
<rect class="code" x="8" y="1810" width="2" height="5" />
<rect class="code" x="4" y="1820" width="2" height="5" />
<rect class="code" x="4" y="1840" width="3" height="5" />
<rect class="code" x="5" y="1850" width="47" height="5" />
<rect class="code" x="5" y="1860" width="2" height="5" />
<rect class="code" x="5" y="1870" width="42" height="5" />
<rect class="code" x="5" y="1880" width="2" height="5" />
<rect class="code" x="5" y="1890" width="62" height="5" />
<rect class="code" x="5" y="1900" width="2" height="5" />
<rect class="code" x="4" y="1910" width="24" height="5" />
<rect class="code" x="4" y="1920" width="2" height="5" />
<rect class="code" x="8" y="1930" width="16" height="5" />
<rect class="code" x="12" y="1940" width="31" height="5" />
<rect class="code" x="16" y="1950" width="29" height="5" />
<rect class="code" x="16" y="1960" width="30" height="5" />
<rect class="code" x="16" y="1970" width="41" height="5" />
<rect class="code" x="12" y="1980" width="3" height="5" />
<rect class="code" x="16" y="1990" width="12" height="5" />
<rect class="code" x="12" y="2000" width="2" height="5" />
<rect class="code" x="12" y="2010" width="46" height="5" />
<rect class="code" x="16" y="2020" width="12" height="5" />
<rect class="code" x="12" y="2030" width="8" height="5" />
<rect class="code" x="16" y="2040" width="78" height="5" />
<rect class="code" x="12" y="2050" width="2" height="5" />
<rect class="code" x="8" y="2060" width="2" height="5" />
<rect class="code" x="4" y="2070" width="2" height="5" />
<rect class="code" x="4" y="2090" width="3" height="5" />
<rect class="code" x="5" y="2100" width="17" height="5" />
<rect class="code" x="5" y="2110" width="2" height="5" />
<rect class="code" x="5" y="2120" width="57" height="5" />
<rect class="code" x="5" y="2130" width="68" height="5" />
<rect class="code" x="5" y="2140" width="2" height="5" />
<rect class="code" x="5" y="2150" width="55" height="5" />
<rect class="code" x="5" y="2160" width="77" height="5" />
<rect class="code" x="5" y="2170" width="2" height="5" />
<rect class="code" x="5" y="2180" width="39" height="5" />
<rect class="code" x="5" y="2190" width="2" height="5" />
<rect class="code" x="5" y="2200" width="81" height="5" />
<rect class="code" x="5" y="2210" width="75" height="5" />
<rect class="code" x="5" y="2220" width="110" height="5" />
<rect class="code" x="5" y="2230" width="2" height="5" />
<rect class="code" x="5" y="2240" width="16" height="5" />
<rect class="code" x="5" y="2250" width="2" height="5" />
<rect class="code" x="4" y="2260" width="81" height="5" />
<rect class="code" x="4" y="2270" width="2" height="5" />
<rect class="code" x="8" y="2280" width="65" height="5" />
<rect class="code" x="8" y="2290" width="70" height="5" />
<rect class="code" x="8" y="2300" width="71" height="5" />
<rect class="code" x="8" y="2310" width="41" height="5" />
<rect class="code" x="8" y="2320" width="16" height="5" />
<rect class="code" x="12" y="2330" width="34" height="5" />
<rect class="code" x="16" y="2340" width="13" height="5" />
<rect class="code" x="12" y="2350" width="2" height="5" />
<rect class="code" x="12" y="2360" width="33" height="5" />
<rect class="code" x="16" y="2370" width="26" height="5" />
<rect class="code" x="12" y="2380" width="2" height="5" />
<rect class="code" x="12" y="2390" width="47" height="5" />
<rect class="code" x="12" y="2400" width="76" height="5" />
<rect class="code" x="16" y="2410" width="28" height="5" />
<rect class="code" x="12" y="2420" width="2" height="5" />
<rect class="code" x="12" y="2440" width="33" height="5" />
<rect class="code" x="16" y="2450" width="77" height="5" />
<rect class="code" x="12" y="2460" width="2" height="5" />
<rect class="code" x="12" y="2480" width="35" height="5" />
<rect class="code" x="16" y="2490" width="32" height="5" />
<rect class="code" x="12" y="2500" width="52" height="5" />
<rect class="code" x="16" y="2510" width="12" height="5" />
<rect class="code" x="16" y="2520" width="9" height="5" />
<rect class="code" x="12" y="2530" width="93" height="5" />
<rect class="code" x="16" y="2540" width="45" height="5" />
<rect class="code" x="12" y="2550" width="8" height="5" />
<rect class="code" x="16" y="2560" width="64" height="5" />
<rect class="code" x="20" y="2570" width="11" height="5" />
<rect class="code" x="24" y="2580" width="40" height="5" />
<rect class="code" x="20" y="2590" width="2" height="5" />
<rect class="code" x="20" y="2610" width="24" height="5" />
<rect class="code" x="20" y="2620" width="57" height="5" />
<rect class="code" x="24" y="2630" width="30" height="5" />
<rect class="code" x="24" y="2640" width="61" height="5" />
<rect class="code" x="28" y="2650" width="23" height="5" />
<rect class="code" x="24" y="2660" width="2" height="5" />
<rect class="code" x="20" y="2670" width="2" height="5" />
<rect class="code" x="20" y="2690" width="67" height="5" />
<rect class="code" x="16" y="2700" width="2" height="5" />
<rect class="code" x="16" y="2720" width="7" height="5" />
<rect class="code" x="12" y="2730" width="2" height="5" />
<rect class="code" x="12" y="2750" width="27" height="5" />
<rect class="code" x="12" y="2770" width="5" height="5" />
<rect class="code" x="16" y="2780" width="28" height="5" />
<rect class="code" x="12" y="2790" width="25" height="5" />
<rect class="code" x="16" y="2800" width="28" height="5" />
<rect class="code" x="16" y="2820" width="9" height="5" />
<rect class="code" x="12" y="2830" width="11" height="5" />
<rect class="code" x="16" y="2840" width="27" height="5" />
<rect class="code" x="12" y="2850" width="2" height="5" />
<rect class="code" x="12" y="2870" width="16" height="5" />
<rect class="code" x="8" y="2880" width="2" height="5" />
<rect class="code" x="4" y="2890" width="2" height="5" />
<rect class="code" x="4" y="2910" width="3" height="5" />
<rect class="code" x="5" y="2920" width="66" height="5" />
<rect class="code" x="5" y="2930" width="2" height="5" />
<rect class="code" x="5" y="2940" width="42" height="5" />
<rect class="code" x="5" y="2950" width="2" height="5" />
<rect class="code" x="5" y="2960" width="76" height="5" />
<rect class="code" x="5" y="2970" width="2" height="5" />
<rect class="code" x="4" y="2980" width="32" height="5" />
<rect class="code" x="4" y="2990" width="2" height="5" />
<rect class="code" x="8" y="3000" width="22" height="5" />
<rect class="code" x="8" y="3020" width="34" height="5" />
<rect class="code" x="12" y="3030" width="13" height="5" />
<rect class="code" x="8" y="3040" width="2" height="5" />
<rect class="code" x="8" y="3060" width="33" height="5" />
<rect class="code" x="12" y="3070" width="26" height="5" />
<rect class="code" x="8" y="3080" width="2" height="5" />
<rect class="code" x="8" y="3100" width="77" height="5" />
<rect class="code" x="4" y="3110" width="2" height="5" />
<rect class="code" x="4" y="3130" width="3" height="5" />
<rect class="code" x="5" y="3140" width="15" height="5" />
<rect class="code" x="5" y="3150" width="2" height="5" />
<rect class="code" x="4" y="3160" width="23" height="5" />
<rect class="code" x="4" y="3170" width="2" height="5" />
<rect class="code" x="8" y="3180" width="26" height="5" />
<rect class="code" x="4" y="3190" width="2" height="5" />
<rect class="code" x="4" y="3210" width="3" height="5" />
<rect class="code" x="5" y="3220" width="23" height="5" />
<rect class="code" x="5" y="3230" width="2" height="5" />
<rect class="code" x="5" y="3240" width="51" height="5" />
<rect class="code" x="5" y="3250" width="2" height="5" />
<rect class="code" x="4" y="3260" width="31" height="5" />
<rect class="code" x="4" y="3270" width="2" height="5" />
<rect class="code" x="8" y="3280" width="15" height="5" />
<rect class="code" x="8" y="3290" width="47" height="5" />
<rect class="code" x="12" y="3300" width="56" height="5" />
<rect class="code" x="16" y="3310" width="37" height="5" />
<rect class="code" x="12" y="3320" width="2" height="5" />
<rect class="code" x="8" y="3330" width="2" height="5" />
<rect class="code" x="8" y="3340" width="29" height="5" />
<rect class="code" x="8" y="3360" width="68" height="5" />
<rect class="code" x="4" y="3370" width="2" height="5" />
<rect class="code" x="4" y="3390" width="3" height="5" />
<rect class="code" x="5" y="3400" width="21" height="5" />
<rect class="code" x="5" y="3410" width="2" height="5" />
<rect class="code" x="5" y="3420" width="40" height="5" />
<rect class="code" x="5" y="3430" width="2" height="5" />
<rect class="code" x="5" y="3440" width="37" height="5" />
<rect class="code" x="5" y="3450" width="2" height="5" />
<rect class="code" x="4" y="3460" width="36" height="5" />
<rect class="code" x="4" y="3470" width="2" height="5" />
<rect class="code" x="8" y="3480" width="98" height="5" />
<rect class="code" x="4" y="3490" width="2" height="5" />
<rect class="code" x="4" y="3510" width="3" height="5" />
<rect class="code" x="5" y="3520" width="25" height="5" />
<rect class="code" x="5" y="3530" width="2" height="5" />
<rect class="code" x="5" y="3540" width="44" height="5" />
<rect class="code" x="5" y="3550" width="2" height="5" />
<rect class="code" x="5" y="3560" width="39" height="5" />
<rect class="code" x="5" y="3570" width="2" height="5" />
<rect class="code" x="4" y="3580" width="38" height="5" />
<rect class="code" x="4" y="3590" width="2" height="5" />
<rect class="code" x="8" y="3600" width="144" height="5" />
<rect class="code" x="4" y="3610" width="2" height="5" />
<rect class="code" x="4" y="3630" width="26" height="5" />
<rect class="code" x="4" y="3640" width="2" height="5" />
<rect class="code" x="4" y="3650" width="2" height="5" />
<rect class="code" x="0" y="3660" width="2" height="5" />
</svg>