<svg xmlns="http://www.w3.org/2000/svg" width="200" height="5240" viewBox="0 0 100 2620">
<style>.code{fill:#333}</style>
<rect class="code" x="0" y="0" width="67" height="5" />
<rect class="code" x="0" y="20" width="57" height="5" />
<rect class="code" x="0" y="40" width="16" height="5" />
<rect class="code" x="2" y="60" width="56" height="5" />
<rect class="code" x="2" y="70" width="29" height="5" />
<rect class="code" x="2" y="80" width="53" height="5" />
<rect class="code" x="5" y="90" width="60" height="5" />
<rect class="code" x="2" y="100" width="35" height="5" />
<rect class="code" x="2" y="110" width="8" height="5" />
<rect class="code" x="0" y="130" width="3" height="5" />
<rect class="code" x="0" y="140" width="10" height="5" />
<rect class="code" x="0" y="150" width="12" height="5" />
<rect class="code" x="0" y="160" width="15" height="5" />
<rect class="code" x="0" y="180" width="15" height="5" />
<rect class="code" x="0" y="190" width="52" height="5" />
<rect class="code" x="0" y="200" width="52" height="5" />
<rect class="code" x="0" y="220" width="60" height="5" />
<rect class="code" x="0" y="230" width="44" height="5" />
<rect class="code" x="0" y="240" width="38" height="5" />
<rect class="code" x="0" y="250" width="39" height="5" />
<rect class="code" x="0" y="260" width="38" height="5" />
<rect class="code" x="0" y="270" width="41" height="5" />
<rect class="code" x="0" y="280" width="35" height="5" />
<rect class="code" x="4" y="290" width="20" height="5" />
<rect class="code" x="4" y="300" width="13" height="5" />
<rect class="code" x="4" y="310" width="32" height="5" />
<rect class="code" x="0" y="320" width="2" height="5" />
<rect class="code" x="0" y="350" width="47" height="5" />
<rect class="code" x="4" y="360" width="53" height="5" />
<rect class="code" x="4" y="370" width="44" height="5" />
<rect class="code" x="8" y="380" width="10" height="5" />
<rect class="code" x="8" y="390" width="32" height="5" />
<rect class="code" x="4" y="400" width="31" height="5" />
<rect class="code" x="8" y="410" width="14" height="5" />
<rect class="code" x="8" y="420" width="32" height="5" />
<rect class="code" x="4" y="430" width="31" height="5" />
<rect class="code" x="8" y="440" width="14" height="5" />
<rect class="code" x="8" y="450" width="32" height="5" />
<rect class="code" x="4" y="460" width="5" height="5" />
<rect class="code" x="8" y="470" width="20" height="5" />
<rect class="code" x="0" y="500" width="26" height="5" />
<rect class="code" x="4" y="510" width="23" height="5" />
<rect class="code" x="8" y="520" width="31" height="5" />
<rect class="code" x="8" y="530" width="35" height="5" />
<rect class="code" x="8" y="540" width="35" height="5" />
<rect class="code" x="8" y="550" width="50" height="5" />
<rect class="code" x="8" y="560" width="50" height="5" />
<rect class="code" x="4" y="570" width="2" height="5" />
<rect class="code" x="4" y="580" width="24" height="5" />
<rect class="code" x="4" y="590" width="27" height="5" />
<rect class="code" x="4" y="600" width="22" height="5" />
<rect class="code" x="0" y="630" width="38" height="5" />
<rect class="code" x="4" y="640" width="3" height="5" />
<rect class="code" x="4" y="650" width="28" height="5" />
<rect class="code" x="4" y="660" width="38" height="5" />
<rect class="code" x="4" y="680" width="3" height="5" />
<rect class="code" x="4" y="690" width="8" height="5" />
<rect class="code" x="8" y="700" width="26" height="5" />
<rect class="code" x="8" y="710" width="30" height="5" />
<rect class="code" x="8" y="720" width="15" height="5" />
<rect class="code" x="4" y="730" width="2" height="5" />
<rect class="code" x="0" y="760" width="34" height="5" />
<rect class="code" x="4" y="770" width="3" height="5" />
<rect class="code" x="4" y="780" width="39" height="5" />
<rect class="code" x="4" y="800" width="45" height="5" />
<rect class="code" x="4" y="810" width="22" height="5" />
<rect class="code" x="4" y="820" width="36" height="5" />
<rect class="code" x="4" y="830" width="20" height="5" />
<rect class="code" x="4" y="850" width="3" height="5" />
<rect class="code" x="4" y="860" width="27" height="5" />
<rect class="code" x="4" y="870" width="17" height="5" />
<rect class="code" x="4" y="880" width="45" height="5" />
<rect class="code" x="4" y="900" width="4" height="5" />
<rect class="code" x="8" y="910" width="17" height="5" />
<rect class="code" x="12" y="920" width="50" height="5" />
<rect class="code" x="12" y="930" width="24" height="5" />
<rect class="code" x="16" y="940" width="29" height="5" />
<rect class="code" x="16" y="950" width="25" height="5" />
<rect class="code" x="16" y="960" width="27" height="5" />
<rect class="code" x="12" y="970" width="2" height="5" />
<rect class="code" x="12" y="980" width="36" height="5" />
<rect class="code" x="8" y="1000" width="68" height="5" />
<rect class="code" x="8" y="1010" width="12" height="5" />
<rect class="code" x="12" y="1020" width="53" height="5" />
<rect class="code" x="8" y="1030" width="5" height="5" />
<rect class="code" x="12" y="1040" width="28" height="5" />
<rect class="code" x="8" y="1060" width="26" height="5" />
<rect class="code" x="12" y="1080" width="35" height="5" />
<rect class="code" x="16" y="1090" width="30" height="5" />
<rect class="code" x="20" y="1100" width="33" height="5" />
<rect class="code" x="20" y="1110" width="18" height="5" />
<rect class="code" x="16" y="1120" width="2" height="5" />
<rect class="code" x="16" y="1130" width="58" height="5" />
<rect class="code" x="20" y="1140" width="10" height="5" />
<rect class="code" x="24" y="1150" width="55" height="5" />
<rect class="code" x="24" y="1160" width="15" height="5" />
<rect class="code" x="20" y="1170" width="2" height="5" />
<rect class="code" x="12" y="1190" width="23" height="5" />
<rect class="code" x="16" y="1200" width="30" height="5" />
<rect class="code" x="20" y="1210" width="10" height="5" />
<rect class="code" x="20" y="1220" width="8" height="5" />
<rect class="code" x="20" y="1230" width="25" height="5" />
<rect class="code" x="20" y="1240" width="18" height="5" />
<rect class="code" x="20" y="1250" width="16" height="5" />
<rect class="code" x="24" y="1260" width="19" height="5" />
<rect class="code" x="24" y="1270" width="29" height="5" />
<rect class="code" x="24" y="1280" width="31" height="5" />
<rect class="code" x="20" y="1290" width="2" height="5" />
<rect class="code" x="16" y="1300" width="2" height="5" />
<rect class="code" x="16" y="1310" width="63" height="5" />
<rect class="code" x="16" y="1320" width="22" height="5" />
<rect class="code" x="16" y="1330" width="41" height="5" />
<rect class="code" x="12" y="1340" width="2" height="5" />
<rect class="code" x="12" y="1350" width="4" height="5" />
<rect class="code" x="16" y="1360" width="59" height="5" />
<rect class="code" x="20" y="1370" width="55" height="5" />
<rect class="code" x="16" y="1380" width="5" height="5" />
<rect class="code" x="20" y="1390" width="35" height="5" />
<rect class="code" x="12" y="1400" width="20" height="5" />
<rect class="code" x="16" y="1410" width="49" height="5" />
<rect class="code" x="20" y="1420" width="41" height="5" />
<rect class="code" x="20" y="1430" width="22" height="5" />
<rect class="code" x="16" y="1440" width="5" height="5" />
<rect class="code" x="20" y="1450" width="5" height="5" />
<rect class="code" x="8" y="1470" width="47" height="5" />
<rect class="code" x="12" y="1480" width="30" height="5" />
<rect class="code" x="12" y="1490" width="63" height="5" />
<rect class="code" x="12" y="1500" width="13" height="5" />
<rect class="code" x="16" y="1510" width="23" height="5" />
<rect class="code" x="16" y="1520" width="20" height="5" />
<rect class="code" x="16" y="1530" width="12" height="5" />
<rect class="code" x="12" y="1540" width="2" height="5" />
<rect class="code" x="12" y="1550" width="19" height="5" />
<rect class="code" x="12" y="1560" width="26" height="5" />
<rect class="code" x="16" y="1570" width="30" height="5" />
<rect class="code" x="16" y="1580" width="59" height="5" />
<rect class="code" x="20" y="1590" width="29" height="5" />
<rect class="code" x="20" y="1600" width="28" height="5" />
<rect class="code" x="16" y="1610" width="2" height="5" />
<rect class="code" x="8" y="1620" width="18" height="5" />
<rect class="code" x="4" y="1640" width="8" height="5" />
<rect class="code" x="8" y="1650" width="42" height="5" />
<rect class="code" x="12" y="1660" width="19" height="5" />
<rect class="code" x="8" y="1680" width="55" height="5" />
<rect class="code" x="16" y="1690" width="28" height="5" />
<rect class="code" x="12" y="1700" width="24" height="5" />
<rect class="code" x="0" y="1730" width="70" height="5" />
<rect class="code" x="4" y="1740" width="3" height="5" />
<rect class="code" x="4" y="1750" width="18" height="5" />
<rect class="code" x="4" y="1770" width="59" height="5" />
<rect class="code" x="4" y="1780" width="45" height="5" />
<rect class="code" x="4" y="1800" width="24" height="5" />
<rect class="code" x="4" y="1820" width="3" height="5" />
<rect class="code" x="4" y="1830" width="44" height="5" />
<rect class="code" x="4" y="1840" width="39" height="5" />
<rect class="code" x="4" y="1860" width="36" height="5" />
<rect class="code" x="8" y="1870" width="16" height="5" />
<rect class="code" x="8" y="1880" width="36" height="5" />
<rect class="code" x="8" y="1890" width="36" height="5" />
<rect class="code" x="8" y="1900" width="51" height="5" />
<rect class="code" x="4" y="1920" width="29" height="5" />
<rect class="code" x="4" y="1940" width="30" height="5" />
<rect class="code" x="8" y="1950" width="40" height="5" />
<rect class="code" x="4" y="1970" width="20" height="5" />
<rect class="code" x="8" y="1980" width="28" height="5" />
<rect class="code" x="4" y="2000" width="38" height="5" />
<rect class="code" x="4" y="2010" width="63" height="5" />
<rect class="code" x="4" y="2030" width="22" height="5" />
<rect class="code" x="8" y="2040" width="21" height="5" />
<rect class="code" x="8" y="2050" width="23" height="5" />
<rect class="code" x="12" y="2060" width="20" height="5" />
<rect class="code" x="4" y="2080" width="27" height="5" />
<rect class="code" x="4" y="2100" width="4" height="5" />
<rect class="code" x="8" y="2110" width="51" height="5" />
<rect class="code" x="4" y="2120" width="25" height="5" />
<rect class="code" x="8" y="2130" width="22" height="5" />
<rect class="code" x="8" y="2140" width="21" height="5" />
<rect class="code" x="12" y="2150" width="5" height="5" />
<rect class="code" x="8" y="2160" width="30" height="5" />
<rect class="code" x="4" y="2170" width="23" height="5" />
<rect class="code" x="8" y="2180" width="27" height="5" />
<rect class="code" x="12" y="2190" width="22" height="5" />
<rect class="code" x="12" y="2200" width="21" height="5" />
<rect class="code" x="16" y="2210" width="5" height="5" />
<rect class="code" x="12" y="2220" width="30" height="5" />
<rect class="code" x="4" y="2230" width="5" height="5" />
<rect class="code" x="8" y="2240" width="4" height="5" />
<rect class="code" x="12" y="2250" width="22" height="5" />
<rect class="code" x="16" y="2260" width="17" height="5" />
<rect class="code" x="16" y="2270" width="8" height="5" />
<rect class="code" x="16" y="2280" width="20" height="5" />
<rect class="code" x="12" y="2290" width="2" height="5" />
<rect class="code" x="8" y="2300" width="25" height="5" />
<rect class="code" x="12" y="2310" width="22" height="5" />
<rect class="code" x="12" y="2320" width="21" height="5" />
<rect class="code" x="16" y="2330" width="5" height="5" />
<rect class="code" x="12" y="2340" width="30" height="5" />
<rect class="code" x="8" y="2350" width="23" height="5" />
<rect class="code" x="12" y="2360" width="27" height="5" />
<rect class="code" x="16" y="2370" width="22" height="5" />
<rect class="code" x="16" y="2380" width="21" height="5" />
<rect class="code" x="20" y="2390" width="5" height="5" />
<rect class="code" x="16" y="2400" width="30" height="5" />
<rect class="code" x="8" y="2410" width="24" height="5" />
<rect class="code" x="12" y="2420" width="38" height="5" />
<rect class="code" x="12" y="2430" width="58" height="5" />
<rect class="code" x="8" y="2440" width="33" height="5" />
<rect class="code" x="12" y="2450" width="49" height="5" />
<rect class="code" x="12" y="2460" width="53" height="5" />
<rect class="code" x="18" y="2470" width="26" height="5" />
<rect class="code" x="8" y="2480" width="22" height="5" />
<rect class="code" x="12" y="2490" width="67" height="5" />
<rect class="code" x="12" y="2500" width="12" height="5" />
<rect class="code" x="12" y="2510" width="25" height="5" />
<rect class="code" x="16" y="2520" width="19" height="5" />
<rect class="code" x="16" y="2530" width="27" height="5" />
<rect class="code" x="20" y="2540" width="47" height="5" />
<rect class="code" x="24" y="2550" width="28" height="5" />
<rect class="code" x="12" y="2560" width="42" height="5" />
<rect class="code" x="12" y="2570" width="21" height="5" />
<rect class="code" x="16" y="2580" width="5" height="5" />
<rect class="code" x="12" y="2590" width="30" height="5" />
<rect class="code" x="4" y="2610" width="18" height="5" />
</svg>