<svg xmlns="http://www.w3.org/2000/svg" width="200" height="11240" viewBox="0 0 100 5620">
<style>.code{fill:#333}</style>
<rect class="code" x="0" y="0" width="75" height="5" />
<rect class="code" x="0" y="20" width="2" height="5" />
<rect class="code" x="1" y="30" width="32" height="5" />
<rect class="code" x="1" y="40" width="2" height="5" />
<rect class="code" x="1" y="50" width="49" height="5" />
<rect class="code" x="1" y="60" width="68" height="5" />
<rect class="code" x="1" y="70" width="2" height="5" />
<rect class="code" x="1" y="80" width="73" height="5" />
<rect class="code" x="1" y="90" width="67" height="5" />
<rect class="code" x="1" y="100" width="58" height="5" />
<rect class="code" x="1" y="110" width="2" height="5" />
<rect class="code" x="1" y="120" width="72" height="5" />
<rect class="code" x="1" y="130" width="71" height="5" />
<rect class="code" x="1" y="140" width="75" height="5" />
<rect class="code" x="1" y="150" width="15" height="5" />
<rect class="code" x="1" y="160" width="2" height="5" />
<rect class="code" x="1" y="170" width="78" height="5" />
<rect class="code" x="1" y="180" width="68" height="5" />
<rect class="code" x="1" y="190" width="58" height="5" />
<rect class="code" x="1" y="200" width="2" height="5" />
<rect class="code" x="0" y="220" width="25" height="5" />
<rect class="code" x="0" y="230" width="25" height="5" />
<rect class="code" x="0" y="240" width="29" height="5" />
<rect class="code" x="0" y="250" width="24" height="5" />
<rect class="code" x="0" y="260" width="24" height="5" />
<rect class="code" x="0" y="270" width="27" height="5" />
<rect class="code" x="0" y="280" width="30" height="5" />
<rect class="code" x="0" y="290" width="37" height="5" />
<rect class="code" x="0" y="300" width="32" height="5" />
<rect class="code" x="0" y="310" width="28" height="5" />
<rect class="code" x="0" y="330" width="21" height="5" />
<rect class="code" x="0" y="350" width="62" height="5" />
<rect class="code" x="0" y="370" width="38" height="5" />
<rect class="code" x="0" y="390" width="31" height="5" />
<rect class="code" x="0" y="400" width="32" height="5" />
<rect class="code" x="0" y="420" width="25" height="5" />
<rect class="code" x="4" y="430" width="23" height="5" />
<rect class="code" x="4" y="440" width="24" height="5" />
<rect class="code" x="4" y="450" width="14" height="5" />
<rect class="code" x="4" y="460" width="16" height="5" />
<rect class="code" x="0" y="470" width="2" height="5" />
<rect class="code" x="0" y="490" width="80" height="5" />
<rect class="code" x="0" y="500" width="2" height="5" />
<rect class="code" x="4" y="510" width="34" height="5" />
<rect class="code" x="4" y="530" width="27" height="5" />
<rect class="code" x="4" y="550" width="52" height="5" />
<rect class="code" x="8" y="560" width="14" height="5" />
<rect class="code" x="8" y="580" width="47" height="5" />
<rect class="code" x="12" y="590" width="9" height="5" />
<rect class="code" x="8" y="610" width="31" height="5" />
<rect class="code" x="12" y="620" width="35" height="5" />
<rect class="code" x="20" y="630" width="20" height="5" />
<rect class="code" x="8" y="640" width="16" height="5" />
<rect class="code" x="12" y="650" width="42" height="5" />
<rect class="code" x="8" y="670" width="11" height="5" />
<rect class="code" x="12" y="680" width="9" height="5" />
<rect class="code" x="8" y="700" width="33" height="5" />
<rect class="code" x="12" y="710" width="9" height="5" />
<rect class="code" x="8" y="730" width="8" height="5" />
<rect class="code" x="8" y="740" width="6" height="5" />
<rect class="code" x="4" y="750" width="2" height="5" />
<rect class="code" x="4" y="770" width="25" height="5" />
<rect class="code" x="4" y="790" width="11" height="5" />
<rect class="code" x="0" y="800" width="2" height="5" />
<rect class="code" x="0" y="820" width="76" height="5" />
<rect class="code" x="0" y="830" width="2" height="5" />
<rect class="code" x="4" y="840" width="36" height="5" />
<rect class="code" x="4" y="860" width="54" height="5" />
<rect class="code" x="4" y="880" width="39" height="5" />
<rect class="code" x="4" y="890" width="54" height="5" />
<rect class="code" x="4" y="900" width="54" height="5" />
<rect class="code" x="4" y="920" width="42" height="5" />
<rect class="code" x="12" y="930" width="47" height="5" />
<rect class="code" x="8" y="940" width="21" height="5" />
<rect class="code" x="4" y="950" width="9" height="5" />
<rect class="code" x="0" y="970" width="16" height="5" />
<rect class="code" x="4" y="980" width="17" height="5" />
<rect class="code" x="0" y="990" width="2" height="5" />
<rect class="code" x="0" y="1010" width="74" height="5" />
<rect class="code" x="0" y="1020" width="2" height="5" />
<rect class="code" x="4" y="1030" width="32" height="5" />
<rect class="code" x="4" y="1050" width="55" height="5" />
<rect class="code" x="4" y="1060" width="44" height="5" />
<rect class="code" x="12" y="1070" width="43" height="5" />
<rect class="code" x="8" y="1080" width="21" height="5" />
<rect class="code" x="4" y="1090" width="9" height="5" />
<rect class="code" x="0" y="1110" width="16" height="5" />
<rect class="code" x="4" y="1120" width="17" height="5" />
<rect class="code" x="0" y="1130" width="2" height="5" />
<rect class="code" x="0" y="1150" width="78" height="5" />
<rect class="code" x="0" y="1160" width="2" height="5" />
<rect class="code" x="4" y="1170" width="40" height="5" />
<rect class="code" x="4" y="1190" width="60" height="5" />
<rect class="code" x="4" y="1210" width="44" height="5" />
<rect class="code" x="12" y="1220" width="51" height="5" />
<rect class="code" x="8" y="1230" width="21" height="5" />
<rect class="code" x="4" y="1240" width="9" height="5" />
<rect class="code" x="0" y="1260" width="16" height="5" />
<rect class="code" x="4" y="1270" width="17" height="5" />
<rect class="code" x="0" y="1280" width="2" height="5" />
<rect class="code" x="0" y="1300" width="52" height="5" />
<rect class="code" x="17" y="1310" width="50" height="5" />
<rect class="code" x="0" y="1320" width="2" height="5" />
<rect class="code" x="4" y="1330" width="63" height="5" />
<rect class="code" x="4" y="1340" width="52" height="5" />
<rect class="code" x="8" y="1350" width="31" height="5" />
<rect class="code" x="4" y="1360" width="60" height="5" />
<rect class="code" x="8" y="1370" width="31" height="5" />
<rect class="code" x="4" y="1390" width="19" height="5" />
<rect class="code" x="4" y="1400" width="19" height="5" />
<rect class="code" x="4" y="1410" width="33" height="5" />
<rect class="code" x="4" y="1420" width="49" height="5" />
<rect class="code" x="4" y="1440" width="65" height="5" />
<rect class="code" x="8" y="1450" width="21" height="5" />
<rect class="code" x="4" y="1460" width="41" height="5" />
<rect class="code" x="8" y="1470" width="31" height="5" />
<rect class="code" x="8" y="1490" width="44" height="5" />
<rect class="code" x="8" y="1500" width="42" height="5" />
<rect class="code" x="16" y="1510" width="42" height="5" />
<rect class="code" x="12" y="1520" width="21" height="5" />
<rect class="code" x="8" y="1530" width="9" height="5" />
<rect class="code" x="4" y="1540" width="2" height="5" />
<rect class="code" x="4" y="1560" width="45" height="5" />
<rect class="code" x="8" y="1570" width="36" height="5" />
<rect class="code" x="12" y="1580" width="21" height="5" />
<rect class="code" x="8" y="1600" width="9" height="5" />
<rect class="code" x="4" y="1610" width="2" height="5" />
<rect class="code" x="4" y="1630" width="70" height="5" />
<rect class="code" x="4" y="1640" width="28" height="5" />
<rect class="code" x="8" y="1650" width="35" height="5" />
<rect class="code" x="12" y="1660" width="21" height="5" />
<rect class="code" x="8" y="1680" width="6" height="5" />
<rect class="code" x="4" y="1690" width="30" height="5" />
<rect class="code" x="8" y="1700" width="33" height="5" />
<rect class="code" x="12" y="1710" width="21" height="5" />
<rect class="code" x="8" y="1730" width="6" height="5" />
<rect class="code" x="4" y="1750" width="30" height="5" />
<rect class="code" x="8" y="1760" width="37" height="5" />
<rect class="code" x="12" y="1770" width="21" height="5" />
<rect class="code" x="8" y="1790" width="6" height="5" />
<rect class="code" x="4" y="1800" width="2" height="5" />
<rect class="code" x="0" y="1820" width="4" height="5" />
<rect class="code" x="4" y="1830" width="9" height="5" />
<rect class="code" x="0" y="1850" width="16" height="5" />
<rect class="code" x="4" y="1860" width="17" height="5" />
<rect class="code" x="0" y="1870" width="2" height="5" />
<rect class="code" x="0" y="1890" width="52" height="5" />
<rect class="code" x="17" y="1900" width="30" height="5" />
<rect class="code" x="0" y="1910" width="2" height="5" />
<rect class="code" x="4" y="1920" width="38" height="5" />
<rect class="code" x="4" y="1930" width="36" height="5" />
<rect class="code" x="4" y="1940" width="21" height="5" />
<rect class="code" x="4" y="1950" width="29" height="5" />
<rect class="code" x="4" y="1960" width="12" height="5" />
<rect class="code" x="4" y="1980" width="64" height="5" />
<rect class="code" x="12" y="1990" width="53" height="5" />
<rect class="code" x="4" y="2000" width="11" height="5" />
<rect class="code" x="8" y="2010" width="16" height="5" />
<rect class="code" x="8" y="2020" width="9" height="5" />
<rect class="code" x="4" y="2030" width="2" height="5" />
<rect class="code" x="4" y="2050" width="23" height="5" />
<rect class="code" x="4" y="2070" width="40" height="5" />
<rect class="code" x="4" y="2080" width="10" height="5" />
<rect class="code" x="8" y="2090" width="23" height="5" />
<rect class="code" x="8" y="2100" width="9" height="5" />
<rect class="code" x="4" y="2110" width="2" height="5" />
<rect class="code" x="4" y="2130" width="20" height="5" />
<rect class="code" x="0" y="2150" width="4" height="5" />
<rect class="code" x="4" y="2160" width="11" height="5" />
<rect class="code" x="0" y="2170" width="2" height="5" />
<rect class="code" x="0" y="2190" width="73" height="5" />
<rect class="code" x="13" y="2200" width="22" height="5" />
<rect class="code" x="0" y="2210" width="2" height="5" />
<rect class="code" x="4" y="2220" width="47" height="5" />
<rect class="code" x="4" y="2230" width="23" height="5" />
<rect class="code" x="4" y="2240" width="20" height="5" />
<rect class="code" x="4" y="2250" width="29" height="5" />
<rect class="code" x="4" y="2260" width="8" height="5" />
<rect class="code" x="4" y="2280" width="74" height="5" />
<rect class="code" x="8" y="2290" width="15" height="5" />
<rect class="code" x="4" y="2310" width="29" height="5" />
<rect class="code" x="4" y="2320" width="9" height="5" />
<rect class="code" x="8" y="2330" width="15" height="5" />
<rect class="code" x="4" y="2350" width="14" height="5" />
<rect class="code" x="4" y="2360" width="48" height="5" />
<rect class="code" x="4" y="2370" width="9" height="5" />
<rect class="code" x="8" y="2380" width="14" height="5" />
<rect class="code" x="4" y="2400" width="21" height="5" />
<rect class="code" x="4" y="2410" width="19" height="5" />
<rect class="code" x="4" y="2420" width="35" height="5" />
<rect class="code" x="4" y="2430" width="21" height="5" />
<rect class="code" x="4" y="2450" width="36" height="5" />
<rect class="code" x="0" y="2470" width="9" height="5" />
<rect class="code" x="4" y="2480" width="20" height="5" />
<rect class="code" x="4" y="2500" width="8" height="5" />
<rect class="code" x="8" y="2510" width="11" height="5" />
<rect class="code" x="4" y="2530" width="66" height="5" />
<rect class="code" x="0" y="2540" width="2" height="5" />
<rect class="code" x="0" y="2560" width="79" height="5" />
<rect class="code" x="0" y="2570" width="2" height="5" />
<rect class="code" x="4" y="2580" width="23" height="5" />
<rect class="code" x="4" y="2590" width="29" height="5" />
<rect class="code" x="4" y="2600" width="8" height="5" />
<rect class="code" x="4" y="2620" width="16" height="5" />
<rect class="code" x="8" y="2630" width="9" height="5" />
<rect class="code" x="4" y="2650" width="16" height="5" />
<rect class="code" x="4" y="2670" width="22" height="5" />
<rect class="code" x="4" y="2680" width="19" height="5" />
<rect class="code" x="4" y="2690" width="36" height="5" />
<rect class="code" x="4" y="2700" width="31" height="5" />
<rect class="code" x="4" y="2720" width="54" height="5" />
<rect class="code" x="8" y="2730" width="36" height="5" />
<rect class="code" x="8" y="2740" width="8" height="5" />
<rect class="code" x="12" y="2750" width="13" height="5" />
<rect class="code" x="4" y="2760" width="2" height="5" />
<rect class="code" x="0" y="2780" width="4" height="5" />
<rect class="code" x="4" y="2790" width="16" height="5" />
<rect class="code" x="0" y="2800" width="8" height="5" />
<rect class="code" x="4" y="2810" width="11" height="5" />
<rect class="code" x="0" y="2820" width="2" height="5" />
<rect class="code" x="0" y="2840" width="63" height="5" />
<rect class="code" x="0" y="2850" width="2" height="5" />
<rect class="code" x="4" y="2860" width="9" height="5" />
<rect class="code" x="0" y="2870" width="2" height="5" />
<rect class="code" x="0" y="2890" width="71" height="5" />
<rect class="code" x="17" y="2900" width="22" height="5" />
<rect class="code" x="0" y="2910" width="2" height="5" />
<rect class="code" x="4" y="2920" width="23" height="5" />
<rect class="code" x="4" y="2930" width="44" height="5" />
<rect class="code" x="4" y="2940" width="57" height="5" />
<rect class="code" x="4" y="2950" width="16" height="5" />
<rect class="code" x="4" y="2970" width="41" height="5" />
<rect class="code" x="8" y="2980" width="14" height="5" />
<rect class="code" x="4" y="3000" width="74" height="5" />
<rect class="code" x="8" y="3010" width="15" height="5" />
<rect class="code" x="4" y="3030" width="44" height="5" />
<rect class="code" x="8" y="3040" width="15" height="5" />
<rect class="code" x="4" y="3060" width="29" height="5" />
<rect class="code" x="4" y="3070" width="9" height="5" />
<rect class="code" x="8" y="3080" width="15" height="5" />
<rect class="code" x="4" y="3100" width="28" height="5" />
<rect class="code" x="4" y="3120" width="39" height="5" />
<rect class="code" x="4" y="3140" width="13" height="5" />
<rect class="code" x="8" y="3150" width="42" height="5" />
<rect class="code" x="4" y="3170" width="26" height="5" />
<rect class="code" x="4" y="3190" width="20" height="5" />
<rect class="code" x="4" y="3200" width="27" height="5" />
<rect class="code" x="4" y="3220" width="9" height="5" />
<rect class="code" x="0" y="3230" width="2" height="5" />
<rect class="code" x="0" y="3250" width="68" height="5" />
<rect class="code" x="14" y="3260" width="22" height="5" />
<rect class="code" x="0" y="3270" width="2" height="5" />
<rect class="code" x="4" y="3280" width="23" height="5" />
<rect class="code" x="4" y="3290" width="44" height="5" />
<rect class="code" x="4" y="3300" width="8" height="5" />
<rect class="code" x="4" y="3320" width="41" height="5" />
<rect class="code" x="8" y="3330" width="14" height="5" />
<rect class="code" x="4" y="3350" width="74" height="5" />
<rect class="code" x="8" y="3360" width="15" height="5" />
<rect class="code" x="4" y="3380" width="29" height="5" />
<rect class="code" x="4" y="3390" width="9" height="5" />
<rect class="code" x="8" y="3400" width="15" height="5" />
<rect class="code" x="4" y="3420" width="61" height="5" />
<rect class="code" x="5" y="3430" width="71" height="5" />
<rect class="code" x="5" y="3440" width="66" height="5" />
<rect class="code" x="5" y="3450" width="63" height="5" />
<rect class="code" x="5" y="3460" width="45" height="5" />
<rect class="code" x="4" y="3470" width="14" height="5" />
<rect class="code" x="4" y="3480" width="44" height="5" />
<rect class="code" x="8" y="3490" width="14" height="5" />
<rect class="code" x="4" y="3510" width="13" height="5" />
<rect class="code" x="4" y="3520" width="38" height="5" />
<rect class="code" x="8" y="3530" width="14" height="5" />
<rect class="code" x="4" y="3550" width="64" height="5" />
<rect class="code" x="0" y="3570" width="9" height="5" />
<rect class="code" x="4" y="3580" width="20" height="5" />
<rect class="code" x="4" y="3590" width="11" height="5" />
<rect class="code" x="0" y="3600" width="2" height="5" />
<rect class="code" x="0" y="3620" width="78" height="5" />
<rect class="code" x="27" y="3630" width="9" height="5" />
<rect class="code" x="0" y="3640" width="2" height="5" />
<rect class="code" x="4" y="3650" width="8" height="5" />
<rect class="code" x="4" y="3660" width="23" height="5" />
<rect class="code" x="4" y="3680" width="34" height="5" />
<rect class="code" x="4" y="3690" width="34" height="5" />
<rect class="code" x="4" y="3710" width="10" height="5" />
<rect class="code" x="8" y="3720" width="48" height="5" />
<rect class="code" x="8" y="3730" width="17" height="5" />
<rect class="code" x="12" y="3740" width="11" height="5" />
<rect class="code" x="8" y="3760" width="19" height="5" />
<rect class="code" x="8" y="3770" width="19" height="5" />
<rect class="code" x="12" y="3780" width="6" height="5" />
<rect class="code" x="8" y="3790" width="36" height="5" />
<rect class="code" x="12" y="3800" width="13" height="5" />
<rect class="code" x="12" y="3810" width="6" height="5" />
<rect class="code" x="8" y="3820" width="2" height="5" />
<rect class="code" x="4" y="3830" width="2" height="5" />
<rect class="code" x="4" y="3850" width="20" height="5" />
<rect class="code" x="0" y="3860" width="2" height="5" />
<rect class="code" x="0" y="3880" width="68" height="5" />
<rect class="code" x="14" y="3890" width="22" height="5" />
<rect class="code" x="0" y="3900" width="2" height="5" />
<rect class="code" x="4" y="3910" width="14" height="5" />
<rect class="code" x="4" y="3920" width="17" height="5" />
<rect class="code" x="4" y="3930" width="23" height="5" />
<rect class="code" x="4" y="3940" width="44" height="5" />
<rect class="code" x="4" y="3950" width="57" height="5" />
<rect class="code" x="4" y="3970" width="41" height="5" />
<rect class="code" x="8" y="3980" width="14" height="5" />
<rect class="code" x="4" y="4000" width="74" height="5" />
<rect class="code" x="8" y="4010" width="15" height="5" />
<rect class="code" x="4" y="4030" width="31" height="5" />
<rect class="code" x="8" y="4040" width="10" height="5" />
<rect class="code" x="4" y="4060" width="23" height="5" />
<rect class="code" x="8" y="4070" width="15" height="5" />
<rect class="code" x="4" y="4090" width="33" height="5" />
<rect class="code" x="4" y="4100" width="10" height="5" />
<rect class="code" x="8" y="4110" width="20" height="5" />
<rect class="code" x="8" y="4120" width="15" height="5" />
<rect class="code" x="4" y="4130" width="2" height="5" />
<rect class="code" x="4" y="4150" width="31" height="5" />
<rect class="code" x="8" y="4160" width="26" height="5" />
<rect class="code" x="4" y="4170" width="4" height="5" />
<rect class="code" x="8" y="4180" width="19" height="5" />
<rect class="code" x="4" y="4200" width="59" height="5" />
<rect class="code" x="4" y="4210" width="31" height="5" />
<rect class="code" x="4" y="4220" width="31" height="5" />
<rect class="code" x="4" y="4230" width="32" height="5" />
<rect class="code" x="8" y="4240" width="63" height="5" />
<rect class="code" x="8" y="4250" width="6" height="5" />
<rect class="code" x="4" y="4260" width="8" height="5" />
<rect class="code" x="8" y="4270" width="60" height="5" />
<rect class="code" x="4" y="4280" width="2" height="5" />
<rect class="code" x="4" y="4300" width="16" height="5" />
<rect class="code" x="8" y="4310" width="20" height="5" />
<rect class="code" x="4" y="4330" width="28" height="5" />
<rect class="code" x="4" y="4350" width="13" height="5" />
<rect class="code" x="8" y="4360" width="42" height="5" />
<rect class="code" x="4" y="4380" width="26" height="5" />
<rect class="code" x="4" y="4400" width="20" height="5" />
<rect class="code" x="4" y="4420" width="9" height="5" />
<rect class="code" x="0" y="4430" width="2" height="5" />
<rect class="code" x="0" y="4450" width="68" height="5" />
<rect class="code" x="14" y="4460" width="22" height="5" />
<rect class="code" x="0" y="4470" width="2" height="5" />
<rect class="code" x="4" y="4480" width="41" height="5" />
<rect class="code" x="8" y="4490" width="14" height="5" />
<rect class="code" x="4" y="4500" width="32" height="5" />
<rect class="code" x="0" y="4510" width="2" height="5" />
<rect class="code" x="0" y="4530" width="41" height="5" />
<rect class="code" x="0" y="4550" width="55" height="5" />
<rect class="code" x="4" y="4560" width="65" height="5" />
<rect class="code" x="4" y="4570" width="65" height="5" />
<rect class="code" x="4" y="4580" width="68" height="5" />
<rect class="code" x="4" y="4590" width="42" height="5" />
<rect class="code" x="0" y="4600" width="2" height="5" />
<rect class="code" x="0" y="4620" width="66" height="5" />
<rect class="code" x="4" y="4630" width="49" height="5" />
<rect class="code" x="0" y="4640" width="2" height="5" />
<rect class="code" x="0" y="4660" width="14" height="5" />
<rect class="code" x="0" y="4680" width="33" height="5" />
<rect class="code" x="4" y="4690" width="67" height="5" />
<rect class="code" x="4" y="4700" width="57" height="5" />
<rect class="code" x="4" y="4710" width="39" height="5" />
<rect class="code" x="0" y="4720" width="41" height="5" />
<rect class="code" x="4" y="4730" width="66" height="5" />
<rect class="code" x="4" y="4740" width="66" height="5" />
<rect class="code" x="4" y="4750" width="72" height="5" />
<rect class="code" x="4" y="4760" width="64" height="5" />
<rect class="code" x="31" y="4770" width="27" height="5" />
<rect class="code" x="31" y="4780" width="33" height="5" />
<rect class="code" x="4" y="4790" width="67" height="5" />
<rect class="code" x="0" y="4800" width="2" height="5" />
<rect class="code" x="0" y="4820" width="73" height="5" />
<rect class="code" x="0" y="4830" width="2" height="5" />
<rect class="code" x="4" y="4840" width="39" height="5" />
<rect class="code" x="4" y="4850" width="31" height="5" />
<rect class="code" x="4" y="4860" width="14" height="5" />
<rect class="code" x="4" y="4880" width="23" height="5" />
<rect class="code" x="4" y="4890" width="26" height="5" />
<rect class="code" x="8" y="4900" width="15" height="5" />
<rect class="code" x="4" y="4920" width="24" height="5" />
<rect class="code" x="4" y="4930" width="30" height="5" />
<rect class="code" x="4" y="4950" width="53" height="5" />
<rect class="code" x="8" y="4960" width="35" height="5" />
<rect class="code" x="8" y="4970" width="23" height="5" />
<rect class="code" x="8" y="4980" width="19" height="5" />
<rect class="code" x="8" y="5000" width="23" height="5" />
<rect class="code" x="12" y="5010" width="15" height="5" />
<rect class="code" x="8" y="5030" width="27" height="5" />
<rect class="code" x="8" y="5040" width="52" height="5" />
<rect class="code" x="12" y="5050" width="36" height="5" />
<rect class="code" x="8" y="5070" width="2" height="5" />
<rect class="code" x="12" y="5080" width="33" height="5" />
<rect class="code" x="16" y="5090" width="19" height="5" />
<rect class="code" x="16" y="5100" width="19" height="5" />
<rect class="code" x="16" y="5110" width="29" height="5" />
<rect class="code" x="12" y="5120" width="2" height="5" />
<rect class="code" x="12" y="5130" width="52" height="5" />
<rect class="code" x="8" y="5140" width="2" height="5" />
<rect class="code" x="8" y="5150" width="25" height="5" />
<rect class="code" x="8" y="5170" width="11" height="5" />
<rect class="code" x="4" y="5180" width="2" height="5" />
<rect class="code" x="4" y="5200" width="67" height="5" />
<rect class="code" x="14" y="5210" width="15" height="5" />
<rect class="code" x="4" y="5220" width="12" height="5" />
<rect class="code" x="8" y="5230" width="11" height="5" />
<rect class="code" x="4" y="5250" width="23" height="5" />
<rect class="code" x="8" y="5260" width="15" height="5" />
<rect class="code" x="4" y="5280" width="35" height="5" />
<rect class="code" x="0" y="5290" width="2" height="5" />
<rect class="code" x="0" y="5310" width="51" height="5" />
<rect class="code" x="0" y="5320" width="2" height="5" />
<rect class="code" x="4" y="5330" width="30" height="5" />
<rect class="code" x="4" y="5340" width="43" height="5" />
<rect class="code" x="4" y="5350" width="32" height="5" />
<rect class="code" x="0" y="5360" width="2" height="5" />
<rect class="code" x="0" y="5380" width="40" height="5" />
<rect class="code" x="0" y="5390" width="2" height="5" />
<rect class="code" x="4" y="5400" width="33" height="5" />
<rect class="code" x="8" y="5410" width="28" height="5" />
<rect class="code" x="4" y="5420" width="2" height="5" />
<rect class="code" x="4" y="5440" width="69" height="5" />
<rect class="code" x="4" y="5450" width="17" height="5" />
<rect class="code" x="8" y="5460" width="15" height="5" />
<rect class="code" x="4" y="5480" width="9" height="5" />
<rect class="code" x="0" y="5490" width="2" height="5" />
<rect class="code" x="0" y="5510" width="41" height="5" />
<rect class="code" x="0" y="5520" width="2" height="5" />
<rect class="code" x="4" y="5530" width="36" height="5" />
<rect class="code" x="0" y="5540" width="2" height="5" />
<rect class="code" x="0" y="5560" width="30" height="5" />
<rect class="code" x="0" y="5570" width="30" height="5" />
<rect class="code" x="0" y="5580" width="22" height="5" />
<rect class="code" x="0" y="5590" width="65" height="5" />
<rect class="code" x="0" y="5600" width="57" height="5" />
<rect class="code" x="0" y="5610" width="35" height="5" />
</svg>