<svg xmlns="http://www.w3.org/2000/svg" width="200" height="5160" viewBox="0 0 100 2580">
<style>.code{fill:#333}</style>
<rect class="code" x="8" y="0" width="15" height="5" />
<rect class="code" x="4" y="20" width="29" height="5" />
<rect class="code" x="4" y="30" width="9" height="5" />
<rect class="code" x="8" y="40" width="15" height="5" />
<rect class="code" x="4" y="60" width="28" height="5" />
<rect class="code" x="4" y="80" width="39" height="5" />
<rect class="code" x="4" y="100" width="13" height="5" />
<rect class="code" x="8" y="110" width="42" height="5" />
<rect class="code" x="4" y="130" width="26" height="5" />
<rect class="code" x="4" y="150" width="20" height="5" />
<rect class="code" x="4" y="160" width="27" height="5" />
<rect class="code" x="4" y="180" width="9" height="5" />
<rect class="code" x="0" y="190" width="2" height="5" />
<rect class="code" x="0" y="210" width="68" height="5" />
<rect class="code" x="14" y="220" width="22" height="5" />
<rect class="code" x="0" y="230" width="2" height="5" />
<rect class="code" x="4" y="240" width="23" height="5" />
<rect class="code" x="4" y="250" width="44" height="5" />
<rect class="code" x="4" y="260" width="8" height="5" />
<rect class="code" x="4" y="280" width="41" height="5" />
<rect class="code" x="8" y="290" width="14" height="5" />
<rect class="code" x="4" y="310" width="74" height="5" />
<rect class="code" x="8" y="320" width="15" height="5" />
<rect class="code" x="4" y="340" width="29" height="5" />
<rect class="code" x="4" y="350" width="9" height="5" />
<rect class="code" x="8" y="360" width="15" height="5" />
<rect class="code" x="4" y="380" width="61" height="5" />
<rect class="code" x="5" y="390" width="71" height="5" />
<rect class="code" x="5" y="400" width="66" height="5" />
<rect class="code" x="5" y="410" width="63" height="5" />
<rect class="code" x="5" y="420" width="45" height="5" />
<rect class="code" x="4" y="430" width="14" height="5" />
<rect class="code" x="4" y="440" width="44" height="5" />
<rect class="code" x="8" y="450" width="14" height="5" />
<rect class="code" x="4" y="470" width="13" height="5" />
<rect class="code" x="4" y="480" width="38" height="5" />
<rect class="code" x="8" y="490" width="14" height="5" />
<rect class="code" x="4" y="510" width="64" height="5" />
<rect class="code" x="0" y="530" width="9" height="5" />
<rect class="code" x="4" y="540" width="20" height="5" />
<rect class="code" x="4" y="550" width="11" height="5" />
<rect class="code" x="0" y="560" width="2" height="5" />
<rect class="code" x="0" y="580" width="78" height="5" />
<rect class="code" x="27" y="590" width="9" height="5" />
<rect class="code" x="0" y="600" width="2" height="5" />
<rect class="code" x="4" y="610" width="8" height="5" />
<rect class="code" x="4" y="620" width="23" height="5" />
<rect class="code" x="4" y="640" width="34" height="5" />
<rect class="code" x="4" y="650" width="34" height="5" />
<rect class="code" x="4" y="670" width="10" height="5" />
<rect class="code" x="8" y="680" width="48" height="5" />
<rect class="code" x="8" y="690" width="17" height="5" />
<rect class="code" x="12" y="700" width="11" height="5" />
<rect class="code" x="8" y="720" width="19" height="5" />
<rect class="code" x="8" y="730" width="19" height="5" />
<rect class="code" x="12" y="740" width="6" height="5" />
<rect class="code" x="8" y="750" width="36" height="5" />
<rect class="code" x="12" y="760" width="13" height="5" />
<rect class="code" x="12" y="770" width="6" height="5" />
<rect class="code" x="8" y="780" width="2" height="5" />
<rect class="code" x="4" y="790" width="2" height="5" />
<rect class="code" x="4" y="810" width="20" height="5" />
<rect class="code" x="0" y="820" width="2" height="5" />
<rect class="code" x="0" y="840" width="68" height="5" />
<rect class="code" x="14" y="850" width="22" height="5" />
<rect class="code" x="0" y="860" width="2" height="5" />
<rect class="code" x="4" y="870" width="14" height="5" />
<rect class="code" x="4" y="880" width="17" height="5" />
<rect class="code" x="4" y="890" width="23" height="5" />
<rect class="code" x="4" y="900" width="44" height="5" />
<rect class="code" x="4" y="910" width="57" height="5" />
<rect class="code" x="4" y="930" width="41" height="5" />
<rect class="code" x="8" y="940" width="14" height="5" />
<rect class="code" x="4" y="960" width="74" height="5" />
<rect class="code" x="8" y="970" width="15" height="5" />
<rect class="code" x="4" y="990" width="31" height="5" />
<rect class="code" x="8" y="1000" width="10" height="5" />
<rect class="code" x="4" y="1020" width="23" height="5" />
<rect class="code" x="8" y="1030" width="15" height="5" />
<rect class="code" x="4" y="1050" width="33" height="5" />
<rect class="code" x="4" y="1060" width="10" height="5" />
<rect class="code" x="8" y="1070" width="20" height="5" />
<rect class="code" x="8" y="1080" width="15" height="5" />
<rect class="code" x="4" y="1090" width="2" height="5" />
<rect class="code" x="4" y="1110" width="31" height="5" />
<rect class="code" x="8" y="1120" width="26" height="5" />
<rect class="code" x="4" y="1130" width="4" height="5" />
<rect class="code" x="8" y="1140" width="19" height="5" />
<rect class="code" x="4" y="1160" width="59" height="5" />
<rect class="code" x="4" y="1170" width="31" height="5" />
<rect class="code" x="4" y="1180" width="31" height="5" />
<rect class="code" x="4" y="1190" width="32" height="5" />
<rect class="code" x="8" y="1200" width="63" height="5" />
<rect class="code" x="8" y="1210" width="6" height="5" />
<rect class="code" x="4" y="1220" width="8" height="5" />
<rect class="code" x="8" y="1230" width="60" height="5" />
<rect class="code" x="4" y="1240" width="2" height="5" />
<rect class="code" x="4" y="1260" width="16" height="5" />
<rect class="code" x="8" y="1270" width="20" height="5" />
<rect class="code" x="4" y="1290" width="28" height="5" />
<rect class="code" x="4" y="1310" width="13" height="5" />
<rect class="code" x="8" y="1320" width="42" height="5" />
<rect class="code" x="4" y="1340" width="26" height="5" />
<rect class="code" x="4" y="1360" width="20" height="5" />
<rect class="code" x="4" y="1380" width="9" height="5" />
<rect class="code" x="0" y="1390" width="2" height="5" />
<rect class="code" x="0" y="1410" width="68" height="5" />
<rect class="code" x="14" y="1420" width="22" height="5" />
<rect class="code" x="0" y="1430" width="2" height="5" />
<rect class="code" x="4" y="1440" width="41" height="5" />
<rect class="code" x="8" y="1450" width="14" height="5" />
<rect class="code" x="4" y="1460" width="32" height="5" />
<rect class="code" x="0" y="1470" width="2" height="5" />
<rect class="code" x="0" y="1490" width="41" height="5" />
<rect class="code" x="0" y="1510" width="55" height="5" />
<rect class="code" x="4" y="1520" width="65" height="5" />
<rect class="code" x="4" y="1530" width="65" height="5" />
<rect class="code" x="4" y="1540" width="68" height="5" />
<rect class="code" x="4" y="1550" width="42" height="5" />
<rect class="code" x="0" y="1560" width="2" height="5" />
<rect class="code" x="0" y="1580" width="66" height="5" />
<rect class="code" x="4" y="1590" width="49" height="5" />
<rect class="code" x="0" y="1600" width="2" height="5" />
<rect class="code" x="0" y="1620" width="14" height="5" />
<rect class="code" x="0" y="1640" width="33" height="5" />
<rect class="code" x="4" y="1650" width="67" height="5" />
<rect class="code" x="4" y="1660" width="57" height="5" />
<rect class="code" x="4" y="1670" width="39" height="5" />
<rect class="code" x="0" y="1680" width="41" height="5" />
<rect class="code" x="4" y="1690" width="66" height="5" />
<rect class="code" x="4" y="1700" width="66" height="5" />
<rect class="code" x="4" y="1710" width="72" height="5" />
<rect class="code" x="4" y="1720" width="64" height="5" />
<rect class="code" x="31" y="1730" width="27" height="5" />
<rect class="code" x="31" y="1740" width="33" height="5" />
<rect class="code" x="4" y="1750" width="67" height="5" />
<rect class="code" x="0" y="1760" width="2" height="5" />
<rect class="code" x="0" y="1780" width="73" height="5" />
<rect class="code" x="0" y="1790" width="2" height="5" />
<rect class="code" x="4" y="1800" width="39" height="5" />
<rect class="code" x="4" y="1810" width="31" height="5" />
<rect class="code" x="4" y="1820" width="14" height="5" />
<rect class="code" x="4" y="1840" width="23" height="5" />
<rect class="code" x="4" y="1850" width="26" height="5" />
<rect class="code" x="8" y="1860" width="15" height="5" />
<rect class="code" x="4" y="1880" width="24" height="5" />
<rect class="code" x="4" y="1890" width="30" height="5" />
<rect class="code" x="4" y="1910" width="53" height="5" />
<rect class="code" x="8" y="1920" width="35" height="5" />
<rect class="code" x="8" y="1930" width="23" height="5" />
<rect class="code" x="8" y="1940" width="19" height="5" />
<rect class="code" x="8" y="1960" width="23" height="5" />
<rect class="code" x="12" y="1970" width="15" height="5" />
<rect class="code" x="8" y="1990" width="27" height="5" />
<rect class="code" x="8" y="2000" width="52" height="5" />
<rect class="code" x="12" y="2010" width="36" height="5" />
<rect class="code" x="8" y="2030" width="2" height="5" />
<rect class="code" x="12" y="2040" width="33" height="5" />
<rect class="code" x="16" y="2050" width="19" height="5" />
<rect class="code" x="16" y="2060" width="19" height="5" />
<rect class="code" x="16" y="2070" width="29" height="5" />
<rect class="code" x="12" y="2080" width="2" height="5" />
<rect class="code" x="12" y="2090" width="52" height="5" />
<rect class="code" x="8" y="2100" width="2" height="5" />
<rect class="code" x="8" y="2110" width="25" height="5" />
<rect class="code" x="8" y="2130" width="11" height="5" />
<rect class="code" x="4" y="2140" width="2" height="5" />
<rect class="code" x="4" y="2160" width="67" height="5" />
<rect class="code" x="14" y="2170" width="15" height="5" />
<rect class="code" x="4" y="2180" width="12" height="5" />
<rect class="code" x="8" y="2190" width="11" height="5" />
<rect class="code" x="4" y="2210" width="23" height="5" />
<rect class="code" x="8" y="2220" width="15" height="5" />
<rect class="code" x="4" y="2240" width="35" height="5" />
<rect class="code" x="0" y="2250" width="2" height="5" />
<rect class="code" x="0" y="2270" width="51" height="5" />
<rect class="code" x="0" y="2280" width="2" height="5" />
<rect class="code" x="4" y="2290" width="30" height="5" />
<rect class="code" x="4" y="2300" width="43" height="5" />
<rect class="code" x="4" y="2310" width="32" height="5" />
<rect class="code" x="0" y="2320" width="2" height="5" />
<rect class="code" x="0" y="2340" width="40" height="5" />
<rect class="code" x="0" y="2350" width="2" height="5" />
<rect class="code" x="4" y="2360" width="33" height="5" />
<rect class="code" x="8" y="2370" width="28" height="5" />
<rect class="code" x="4" y="2380" width="2" height="5" />
<rect class="code" x="4" y="2400" width="69" height="5" />
<rect class="code" x="4" y="2410" width="17" height="5" />
<rect class="code" x="8" y="2420" width="15" height="5" />
<rect class="code" x="4" y="2440" width="9" height="5" />
<rect class="code" x="0" y="2450" width="2" height="5" />
<rect class="code" x="0" y="2470" width="41" height="5" />
<rect class="code" x="0" y="2480" width="2" height="5" />
<rect class="code" x="4" y="2490" width="36" height="5" />
<rect class="code" x="0" y="2500" width="2" height="5" />
<rect class="code" x="0" y="2520" width="30" height="5" />
<rect class="code" x="0" y="2530" width="30" height="5" />
<rect class="code" x="0" y="2540" width="22" height="5" />
<rect class="code" x="0" y="2550" width="65" height="5" />
<rect class="code" x="0" y="2560" width="57" height="5" />
<rect class="code" x="0" y="2570" width="35" height="5" />
</svg>