<svg xmlns="http://www.w3.org/2000/svg" width="200" height="4960" viewBox="0 0 100 2480">
<style>.code{fill:#333}</style>
<rect class="code" x="0" y="0" width="81" height="5" />
<rect class="code" x="0" y="20" width="17" height="5" />
<rect class="code" x="0" y="30" width="2" height="5" />
<rect class="code" x="0" y="40" width="80" height="5" />
<rect class="code" x="0" y="50" width="2" height="5" />
<rect class="code" x="0" y="60" width="79" height="5" />
<rect class="code" x="0" y="70" width="80" height="5" />
<rect class="code" x="0" y="80" width="79" height="5" />
<rect class="code" x="0" y="90" width="76" height="5" />
<rect class="code" x="0" y="100" width="72" height="5" />
<rect class="code" x="0" y="110" width="59" height="5" />
<rect class="code" x="0" y="120" width="2" height="5" />
<rect class="code" x="0" y="130" width="77" height="5" />
<rect class="code" x="0" y="140" width="54" height="5" />
<rect class="code" x="0" y="150" width="2" height="5" />
<rect class="code" x="0" y="160" width="77" height="5" />
<rect class="code" x="0" y="170" width="75" height="5" />
<rect class="code" x="0" y="180" width="78" height="5" />
<rect class="code" x="0" y="190" width="73" height="5" />
<rect class="code" x="0" y="200" width="80" height="5" />
<rect class="code" x="0" y="210" width="76" height="5" />
<rect class="code" x="0" y="220" width="16" height="5" />
<rect class="code" x="0" y="240" width="17" height="5" />
<rect class="code" x="0" y="260" width="19" height="5" />
<rect class="code" x="4" y="270" width="27" height="5" />
<rect class="code" x="8" y="280" width="26" height="5" />
<rect class="code" x="8" y="290" width="23" height="5" />
<rect class="code" x="4" y="300" width="2" height="5" />
<rect class="code" x="4" y="320" width="108" height="5" />
<rect class="code" x="8" y="330" width="43" height="5" />
<rect class="code" x="8" y="350" width="21" height="5" />
<rect class="code" x="8" y="360" width="27" height="5" />
<rect class="code" x="12" y="370" width="22" height="5" />
<rect class="code" x="16" y="380" width="60" height="5" />
<rect class="code" x="12" y="390" width="2" height="5" />
<rect class="code" x="8" y="400" width="33" height="5" />
<rect class="code" x="12" y="410" width="22" height="5" />
<rect class="code" x="16" y="420" width="66" height="5" />
<rect class="code" x="12" y="430" width="2" height="5" />
<rect class="code" x="8" y="440" width="2" height="5" />
<rect class="code" x="8" y="460" width="59" height="5" />
<rect class="code" x="8" y="480" width="77" height="5" />
<rect class="code" x="12" y="490" width="88" height="5" />
<rect class="code" x="16" y="500" width="68" height="5" />
<rect class="code" x="12" y="510" width="2" height="5" />
<rect class="code" x="8" y="520" width="2" height="5" />
<rect class="code" x="8" y="540" width="50" height="5" />
<rect class="code" x="8" y="560" width="29" height="5" />
<rect class="code" x="12" y="570" width="16" height="5" />
<rect class="code" x="8" y="580" width="2" height="5" />
<rect class="code" x="8" y="600" width="14" height="5" />
<rect class="code" x="4" y="610" width="2" height="5" />
<rect class="code" x="4" y="630" width="16" height="5" />
<rect class="code" x="4" y="650" width="3" height="5" />
<rect class="code" x="8" y="660" width="104" height="5" />
<rect class="code" x="8" y="670" width="16" height="5" />
<rect class="code" x="8" y="690" width="103" height="5" />
<rect class="code" x="8" y="710" width="41" height="5" />
<rect class="code" x="8" y="720" width="40" height="5" />
<rect class="code" x="8" y="730" width="58" height="5" />
<rect class="code" x="8" y="740" width="67" height="5" />
<rect class="code" x="8" y="750" width="60" height="5" />
<rect class="code" x="8" y="760" width="94" height="5" />
<rect class="code" x="8" y="780" width="40" height="5" />
<rect class="code" x="4" y="790" width="2" height="5" />
<rect class="code" x="4" y="800" width="21" height="5" />
<rect class="code" x="8" y="810" width="15" height="5" />
<rect class="code" x="8" y="820" width="34" height="5" />
<rect class="code" x="8" y="830" width="39" height="5" />
<rect class="code" x="8" y="840" width="35" height="5" />
<rect class="code" x="8" y="850" width="33" height="5" />
<rect class="code" x="8" y="860" width="45" height="5" />
<rect class="code" x="8" y="870" width="10" height="5" />
<rect class="code" x="4" y="880" width="2" height="5" />
<rect class="code" x="8" y="890" width="71" height="5" />
<rect class="code" x="8" y="900" width="84" height="5" />
<rect class="code" x="8" y="920" width="60" height="5" />
<rect class="code" x="4" y="930" width="2" height="5" />
<rect class="code" x="4" y="950" width="3" height="5" />
<rect class="code" x="8" y="960" width="65" height="5" />
<rect class="code" x="8" y="980" width="103" height="5" />
<rect class="code" x="8" y="1000" width="40" height="5" />
<rect class="code" x="8" y="1010" width="94" height="5" />
<rect class="code" x="8" y="1030" width="40" height="5" />
<rect class="code" x="4" y="1040" width="2" height="5" />
<rect class="code" x="4" y="1050" width="114" height="5" />
<rect class="code" x="8" y="1060" width="74" height="5" />
<rect class="code" x="4" y="1070" width="2" height="5" />
<rect class="code" x="4" y="1090" width="20" height="5" />
<rect class="code" x="4" y="1110" width="3" height="5" />
<rect class="code" x="8" y="1120" width="101" height="5" />
<rect class="code" x="8" y="1140" width="103" height="5" />
<rect class="code" x="8" y="1160" width="108" height="5" />
<rect class="code" x="33" y="1170" width="77" height="5" />
<rect class="code" x="33" y="1180" width="23" height="5" />
<rect class="code" x="8" y="1190" width="94" height="5" />
<rect class="code" x="8" y="1210" width="40" height="5" />
<rect class="code" x="4" y="1220" width="2" height="5" />
<rect class="code" x="4" y="1230" width="99" height="5" />
<rect class="code" x="8" y="1240" width="66" height="5" />
<rect class="code" x="4" y="1250" width="2" height="5" />
<rect class="code" x="0" y="1260" width="2" height="5" />
<rect class="code" x="0" y="1280" width="10" height="5" />
<rect class="code" x="0" y="1300" width="19" height="5" />
<rect class="code" x="4" y="1310" width="3" height="5" />
<rect class="code" x="8" y="1320" width="110" height="5" />
<rect class="code" x="8" y="1330" width="112" height="5" />
<rect class="code" x="8" y="1340" width="95" height="5" />
<rect class="code" x="4" y="1350" width="2" height="5" />
<rect class="code" x="4" y="1360" width="78" height="5" />
<rect class="code" x="4" y="1380" width="3" height="5" />
<rect class="code" x="8" y="1390" width="111" height="5" />
<rect class="code" x="8" y="1400" width="111" height="5" />
<rect class="code" x="8" y="1420" width="82" height="5" />
<rect class="code" x="8" y="1430" width="81" height="5" />
<rect class="code" x="8" y="1450" width="47" height="5" />
<rect class="code" x="4" y="1460" width="2" height="5" />
<rect class="code" x="4" y="1470" width="47" height="5" />
<rect class="code" x="8" y="1480" width="64" height="5" />
<rect class="code" x="8" y="1490" width="49" height="5" />
<rect class="code" x="8" y="1500" width="26" height="5" />
<rect class="code" x="4" y="1510" width="2" height="5" />
<rect class="code" x="8" y="1520" width="43" height="5" />
<rect class="code" x="12" y="1530" width="97" height="5" />
<rect class="code" x="12" y="1550" width="27" height="5" />
<rect class="code" x="16" y="1560" width="80" height="5" />
<rect class="code" x="12" y="1570" width="2" height="5" />
<rect class="code" x="12" y="1590" width="19" height="5" />
<rect class="code" x="8" y="1600" width="2" height="5" />
<rect class="code" x="4" y="1610" width="2" height="5" />
<rect class="code" x="4" y="1630" width="81" height="5" />
<rect class="code" x="4" y="1640" width="32" height="5" />
<rect class="code" x="8" y="1650" width="17" height="5" />
<rect class="code" x="8" y="1670" width="53" height="5" />
<rect class="code" x="12" y="1680" width="26" height="5" />
<rect class="code" x="8" y="1690" width="2" height="5" />
<rect class="code" x="8" y="1710" width="11" height="5" />
<rect class="code" x="4" y="1720" width="2" height="5" />
<rect class="code" x="4" y="1740" width="31" height="5" />
<rect class="code" x="4" y="1760" width="72" height="5" />
<rect class="code" x="8" y="1770" width="88" height="5" />
<rect class="code" x="8" y="1780" width="54" height="5" />
<rect class="code" x="8" y="1800" width="23" height="5" />
<rect class="code" x="8" y="1810" width="48" height="5" />
<rect class="code" x="8" y="1830" width="39" height="5" />
<rect class="code" x="8" y="1850" width="26" height="5" />
<rect class="code" x="8" y="1870" width="102" height="5" />
<rect class="code" x="8" y="1880" width="102" height="5" />
<rect class="code" x="8" y="1890" width="100" height="5" />
<rect class="code" x="8" y="1910" width="25" height="5" />
<rect class="code" x="8" y="1930" width="16" height="5" />
<rect class="code" x="12" y="1940" width="22" height="5" />
<rect class="code" x="12" y="1950" width="39" height="5" />
<rect class="code" x="12" y="1960" width="42" height="5" />
<rect class="code" x="8" y="1970" width="2" height="5" />
<rect class="code" x="12" y="1980" width="86" height="5" />
<rect class="code" x="16" y="1990" width="4" height="5" />
<rect class="code" x="20" y="2000" width="88" height="5" />
<rect class="code" x="20" y="2010" width="78" height="5" />
<rect class="code" x="16" y="2020" width="9" height="5" />
<rect class="code" x="20" y="2030" width="29" height="5" />
<rect class="code" x="16" y="2040" width="2" height="5" />
<rect class="code" x="12" y="2050" width="2" height="5" />
<rect class="code" x="8" y="2060" width="2" height="5" />
<rect class="code" x="8" y="2080" width="16" height="5" />
<rect class="code" x="12" y="2090" width="22" height="5" />
<rect class="code" x="12" y="2100" width="39" height="5" />
<rect class="code" x="12" y="2110" width="33" height="5" />
<rect class="code" x="12" y="2120" width="25" height="5" />
<rect class="code" x="12" y="2130" width="33" height="5" />
<rect class="code" x="8" y="2140" width="2" height="5" />
<rect class="code" x="12" y="2150" width="82" height="5" />
<rect class="code" x="12" y="2170" width="60" height="5" />
<rect class="code" x="16" y="2180" width="25" height="5" />
<rect class="code" x="20" y="2190" width="8" height="5" />
<rect class="code" x="20" y="2200" width="13" height="5" />
<rect class="code" x="20" y="2210" width="13" height="5" />
<rect class="code" x="20" y="2220" width="18" height="5" />
<rect class="code" x="20" y="2230" width="25" height="5" />
<rect class="code" x="16" y="2240" width="2" height="5" />
<rect class="code" x="12" y="2250" width="8" height="5" />
<rect class="code" x="16" y="2260" width="51" height="5" />
<rect class="code" x="16" y="2270" width="47" height="5" />
<rect class="code" x="16" y="2290" width="77" height="5" />
<rect class="code" x="12" y="2300" width="2" height="5" />
<rect class="code" x="8" y="2310" width="2" height="5" />
<rect class="code" x="8" y="2330" width="16" height="5" />
<rect class="code" x="12" y="2340" width="22" height="5" />
<rect class="code" x="12" y="2350" width="39" height="5" />
<rect class="code" x="12" y="2360" width="36" height="5" />
<rect class="code" x="12" y="2370" width="26" height="5" />
<rect class="code" x="8" y="2380" width="2" height="5" />
<rect class="code" x="12" y="2390" width="70" height="5" />
<rect class="code" x="16" y="2400" width="84" height="5" />
<rect class="code" x="12" y="2410" width="8" height="5" />
<rect class="code" x="16" y="2420" width="44" height="5" />
<rect class="code" x="16" y="2430" width="40" height="5" />
<rect class="code" x="12" y="2440" width="2" height="5" />
<rect class="code" x="8" y="2450" width="2" height="5" />
<rect class="code" x="4" y="2460" width="2" height="5" />
<rect class="code" x="0" y="2470" width="2" height="5" />
</svg>