<svg xmlns="http://www.w3.org/2000/svg" width="200" height="5160" viewBox="0 0 100 2580">
<style>.code{fill:#333}</style>
<rect class="code" x="4" y="0" width="34" height="5" />
<rect class="code" x="4" y="20" width="47" height="5" />
<rect class="code" x="4" y="30" width="27" height="5" />
<rect class="code" x="4" y="50" width="24" height="5" />
<rect class="code" x="4" y="60" width="27" height="5" />
<rect class="code" x="4" y="80" width="28" height="5" />
<rect class="code" x="4" y="100" width="71" height="5" />
<rect class="code" x="4" y="110" width="27" height="5" />
<rect class="code" x="4" y="130" width="59" height="5" />
<rect class="code" x="4" y="140" width="81" height="5" />
<rect class="code" x="4" y="160" width="39" height="5" />
<rect class="code" x="4" y="170" width="44" height="5" />
<rect class="code" x="4" y="190" width="3" height="5" />
<rect class="code" x="5" y="200" width="80" height="5" />
<rect class="code" x="5" y="210" width="72" height="5" />
<rect class="code" x="5" y="220" width="2" height="5" />
<rect class="code" x="4" y="230" width="8" height="5" />
<rect class="code" x="8" y="240" width="39" height="5" />
<rect class="code" x="8" y="250" width="51" height="5" />
<rect class="code" x="8" y="260" width="74" height="5" />
<rect class="code" x="12" y="270" width="38" height="5" />
<rect class="code" x="8" y="280" width="2" height="5" />
<rect class="code" x="8" y="290" width="66" height="5" />
<rect class="code" x="4" y="300" width="2" height="5" />
<rect class="code" x="4" y="320" width="39" height="5" />
<rect class="code" x="8" y="330" width="25" height="5" />
<rect class="code" x="8" y="340" width="20" height="5" />
<rect class="code" x="8" y="350" width="41" height="5" />
<rect class="code" x="12" y="360" width="69" height="5" />
<rect class="code" x="8" y="370" width="8" height="5" />
<rect class="code" x="12" y="380" width="83" height="5" />
<rect class="code" x="8" y="390" width="2" height="5" />
<rect class="code" x="8" y="410" width="41" height="5" />
<rect class="code" x="12" y="420" width="71" height="5" />
<rect class="code" x="8" y="430" width="8" height="5" />
<rect class="code" x="12" y="440" width="40" height="5" />
<rect class="code" x="8" y="450" width="2" height="5" />
<rect class="code" x="8" y="470" width="44" height="5" />
<rect class="code" x="12" y="480" width="75" height="5" />
<rect class="code" x="8" y="490" width="8" height="5" />
<rect class="code" x="12" y="500" width="44" height="5" />
<rect class="code" x="8" y="510" width="2" height="5" />
<rect class="code" x="8" y="530" width="44" height="5" />
<rect class="code" x="12" y="540" width="75" height="5" />
<rect class="code" x="8" y="550" width="8" height="5" />
<rect class="code" x="12" y="560" width="42" height="5" />
<rect class="code" x="8" y="570" width="2" height="5" />
<rect class="code" x="8" y="590" width="57" height="5" />
<rect class="code" x="8" y="600" width="35" height="5" />
<rect class="code" x="12" y="610" width="39" height="5" />
<rect class="code" x="12" y="620" width="50" height="5" />
<rect class="code" x="12" y="630" width="44" height="5" />
<rect class="code" x="16" y="640" width="47" height="5" />
<rect class="code" x="16" y="650" width="102" height="5" />
<rect class="code" x="12" y="660" width="2" height="5" />
<rect class="code" x="8" y="670" width="8" height="5" />
<rect class="code" x="12" y="680" width="49" height="5" />
<rect class="code" x="12" y="690" width="123" height="5" />
<rect class="code" x="8" y="700" width="2" height="5" />
<rect class="code" x="8" y="710" width="48" height="5" />
<rect class="code" x="12" y="720" width="82" height="5" />
<rect class="code" x="8" y="730" width="8" height="5" />
<rect class="code" x="12" y="740" width="22" height="5" />
<rect class="code" x="8" y="750" width="2" height="5" />
<rect class="code" x="8" y="760" width="57" height="5" />
<rect class="code" x="8" y="770" width="35" height="5" />
<rect class="code" x="12" y="780" width="39" height="5" />
<rect class="code" x="12" y="790" width="44" height="5" />
<rect class="code" x="16" y="800" width="47" height="5" />
<rect class="code" x="12" y="810" width="2" height="5" />
<rect class="code" x="8" y="820" width="8" height="5" />
<rect class="code" x="12" y="830" width="24" height="5" />
<rect class="code" x="8" y="840" width="2" height="5" />
<rect class="code" x="8" y="850" width="41" height="5" />
<rect class="code" x="12" y="860" width="69" height="5" />
<rect class="code" x="8" y="870" width="8" height="5" />
<rect class="code" x="12" y="880" width="36" height="5" />
<rect class="code" x="8" y="890" width="2" height="5" />
<rect class="code" x="8" y="910" width="39" height="5" />
<rect class="code" x="12" y="920" width="66" height="5" />
<rect class="code" x="8" y="930" width="8" height="5" />
<rect class="code" x="12" y="940" width="15" height="5" />
<rect class="code" x="8" y="950" width="2" height="5" />
<rect class="code" x="8" y="970" width="34" height="5" />
<rect class="code" x="8" y="980" width="34" height="5" />
<rect class="code" x="8" y="990" width="42" height="5" />
<rect class="code" x="4" y="1000" width="2" height="5" />
<rect class="code" x="4" y="1020" width="3" height="5" />
<rect class="code" x="5" y="1030" width="46" height="5" />
<rect class="code" x="5" y="1040" width="2" height="5" />
<rect class="code" x="4" y="1050" width="28" height="5" />
<rect class="code" x="8" y="1060" width="21" height="5" />
<rect class="code" x="4" y="1070" width="2" height="5" />
<rect class="code" x="4" y="1090" width="3" height="5" />
<rect class="code" x="5" y="1100" width="20" height="5" />
<rect class="code" x="5" y="1110" width="2" height="5" />
<rect class="code" x="4" y="1120" width="27" height="5" />
<rect class="code" x="8" y="1130" width="17" height="5" />
<rect class="code" x="4" y="1140" width="2" height="5" />
<rect class="code" x="4" y="1160" width="3" height="5" />
<rect class="code" x="5" y="1170" width="26" height="5" />
<rect class="code" x="5" y="1180" width="2" height="5" />
<rect class="code" x="4" y="1190" width="30" height="5" />
<rect class="code" x="8" y="1200" width="22" height="5" />
<rect class="code" x="4" y="1210" width="2" height="5" />
<rect class="code" x="4" y="1230" width="3" height="5" />
<rect class="code" x="5" y="1240" width="61" height="5" />
<rect class="code" x="5" y="1250" width="2" height="5" />
<rect class="code" x="4" y="1260" width="38" height="5" />
<rect class="code" x="8" y="1270" width="28" height="5" />
<rect class="code" x="4" y="1280" width="2" height="5" />
<rect class="code" x="4" y="1300" width="3" height="5" />
<rect class="code" x="5" y="1310" width="39" height="5" />
<rect class="code" x="5" y="1320" width="2" height="5" />
<rect class="code" x="4" y="1330" width="27" height="5" />
<rect class="code" x="8" y="1340" width="17" height="5" />
<rect class="code" x="4" y="1350" width="2" height="5" />
<rect class="code" x="4" y="1370" width="3" height="5" />
<rect class="code" x="5" y="1380" width="81" height="5" />
<rect class="code" x="5" y="1390" width="2" height="5" />
<rect class="code" x="5" y="1400" width="73" height="5" />
<rect class="code" x="5" y="1410" width="2" height="5" />
<rect class="code" x="4" y="1420" width="46" height="5" />
<rect class="code" x="8" y="1430" width="42" height="5" />
<rect class="code" x="4" y="1440" width="2" height="5" />
<rect class="code" x="4" y="1460" width="3" height="5" />
<rect class="code" x="5" y="1470" width="109" height="5" />
<rect class="code" x="5" y="1480" width="49" height="5" />
<rect class="code" x="5" y="1490" width="2" height="5" />
<rect class="code" x="5" y="1500" width="68" height="5" />
<rect class="code" x="5" y="1510" width="2" height="5" />
<rect class="code" x="4" y="1520" width="36" height="5" />
<rect class="code" x="8" y="1530" width="5" height="5" />
<rect class="code" x="12" y="1540" width="49" height="5" />
<rect class="code" x="16" y="1550" width="56" height="5" />
<rect class="code" x="20" y="1560" width="37" height="5" />
<rect class="code" x="20" y="1570" width="50" height="5" />
<rect class="code" x="20" y="1580" width="19" height="5" />
<rect class="code" x="24" y="1590" width="48" height="5" />
<rect class="code" x="24" y="1600" width="12" height="5" />
<rect class="code" x="20" y="1610" width="2" height="5" />
<rect class="code" x="20" y="1620" width="16" height="5" />
<rect class="code" x="20" y="1630" width="28" height="5" />
<rect class="code" x="16" y="1640" width="2" height="5" />
<rect class="code" x="16" y="1650" width="12" height="5" />
<rect class="code" x="12" y="1660" width="45" height="5" />
<rect class="code" x="16" y="1670" width="28" height="5" />
<rect class="code" x="16" y="1680" width="29" height="5" />
<rect class="code" x="16" y="1690" width="14" height="5" />
<rect class="code" x="20" y="1700" width="12" height="5" />
<rect class="code" x="16" y="1710" width="2" height="5" />
<rect class="code" x="16" y="1720" width="37" height="5" />
<rect class="code" x="16" y="1730" width="41" height="5" />
<rect class="code" x="16" y="1740" width="36" height="5" />
<rect class="code" x="16" y="1750" width="48" height="5" />
<rect class="code" x="16" y="1760" width="28" height="5" />
<rect class="code" x="20" y="1770" width="12" height="5" />
<rect class="code" x="16" y="1780" width="2" height="5" />
<rect class="code" x="16" y="1790" width="68" height="5" />
<rect class="code" x="12" y="1800" width="8" height="5" />
<rect class="code" x="16" y="1810" width="71" height="5" />
<rect class="code" x="16" y="1820" width="12" height="5" />
<rect class="code" x="12" y="1830" width="2" height="5" />
<rect class="code" x="8" y="1840" width="36" height="5" />
<rect class="code" x="12" y="1850" width="37" height="5" />
<rect class="code" x="12" y="1860" width="12" height="5" />
<rect class="code" x="8" y="1870" width="33" height="5" />
<rect class="code" x="12" y="1880" width="12" height="5" />
<rect class="code" x="8" y="1890" width="2" height="5" />
<rect class="code" x="4" y="1900" width="2" height="5" />
<rect class="code" x="4" y="1920" width="3" height="5" />
<rect class="code" x="5" y="1930" width="22" height="5" />
<rect class="code" x="5" y="1940" width="2" height="5" />
<rect class="code" x="4" y="1950" width="26" height="5" />
<rect class="code" x="8" y="1960" width="18" height="5" />
<rect class="code" x="4" y="1970" width="2" height="5" />
<rect class="code" x="4" y="1990" width="3" height="5" />
<rect class="code" x="5" y="2000" width="29" height="5" />
<rect class="code" x="5" y="2010" width="2" height="5" />
<rect class="code" x="4" y="2020" width="27" height="5" />
<rect class="code" x="8" y="2030" width="19" height="5" />
<rect class="code" x="4" y="2040" width="2" height="5" />
<rect class="code" x="4" y="2060" width="27" height="5" />
<rect class="code" x="8" y="2070" width="19" height="5" />
<rect class="code" x="4" y="2080" width="2" height="5" />
<rect class="code" x="4" y="2100" width="23" height="5" />
<rect class="code" x="8" y="2110" width="15" height="5" />
<rect class="code" x="4" y="2120" width="2" height="5" />
<rect class="code" x="4" y="2140" width="23" height="5" />
<rect class="code" x="8" y="2150" width="15" height="5" />
<rect class="code" x="4" y="2160" width="2" height="5" />
<rect class="code" x="4" y="2180" width="27" height="5" />
<rect class="code" x="8" y="2190" width="19" height="5" />
<rect class="code" x="4" y="2200" width="2" height="5" />
<rect class="code" x="4" y="2220" width="24" height="5" />
<rect class="code" x="8" y="2230" width="16" height="5" />
<rect class="code" x="4" y="2240" width="2" height="5" />
<rect class="code" x="4" y="2260" width="3" height="5" />
<rect class="code" x="5" y="2270" width="66" height="5" />
<rect class="code" x="5" y="2280" width="2" height="5" />
<rect class="code" x="4" y="2290" width="23" height="5" />
<rect class="code" x="8" y="2300" width="15" height="5" />
<rect class="code" x="4" y="2310" width="2" height="5" />
<rect class="code" x="4" y="2330" width="57" height="5" />
<rect class="code" x="4" y="2340" width="23" height="5" />
<rect class="code" x="8" y="2350" width="15" height="5" />
<rect class="code" x="4" y="2360" width="2" height="5" />
<rect class="code" x="4" y="2380" width="3" height="5" />
<rect class="code" x="5" y="2390" width="48" height="5" />
<rect class="code" x="5" y="2400" width="5" height="5" />
<rect class="code" x="5" y="2410" width="66" height="5" />
<rect class="code" x="5" y="2420" width="6" height="5" />
<rect class="code" x="5" y="2430" width="80" height="5" />
<rect class="code" x="5" y="2440" width="81" height="5" />
<rect class="code" x="5" y="2450" width="79" height="5" />
<rect class="code" x="5" y="2460" width="62" height="5" />
<rect class="code" x="5" y="2470" width="83" height="5" />
<rect class="code" x="5" y="2480" width="62" height="5" />
<rect class="code" x="5" y="2490" width="86" height="5" />
<rect class="code" x="5" y="2500" width="70" height="5" />
<rect class="code" x="5" y="2510" width="95" height="5" />
<rect class="code" x="5" y="2520" width="7" height="5" />
<rect class="code" x="5" y="2530" width="2" height="5" />
<rect class="code" x="4" y="2540" width="68" height="5" />
<rect class="code" x="8" y="2550" width="58" height="5" />
<rect class="code" x="4" y="2560" width="2" height="5" />
<rect class="code" x="0" y="2570" width="2" height="5" />
</svg>