<svg xmlns="http://www.w3.org/2000/svg" width="200" height="6680" viewBox="0 0 100 3340">
<style>.code{fill:#333}</style>
<rect class="code" x="0" y="0" width="119" height="5" />
<rect class="code" x="0" y="20" width="2" height="5" />
<rect class="code" x="1" y="30" width="57" height="5" />
<rect class="code" x="1" y="40" width="58" height="5" />
<rect class="code" x="1" y="50" width="58" height="5" />
<rect class="code" x="1" y="60" width="58" height="5" />
<rect class="code" x="1" y="70" width="58" height="5" />
<rect class="code" x="1" y="80" width="58" height="5" />
<rect class="code" x="1" y="90" width="41" height="5" />
<rect class="code" x="1" y="100" width="2" height="5" />
<rect class="code" x="1" y="110" width="47" height="5" />
<rect class="code" x="1" y="120" width="2" height="5" />
<rect class="code" x="1" y="130" width="60" height="5" />
<rect class="code" x="1" y="140" width="61" height="5" />
<rect class="code" x="1" y="150" width="56" height="5" />
<rect class="code" x="1" y="160" width="59" height="5" />
<rect class="code" x="1" y="170" width="57" height="5" />
<rect class="code" x="1" y="180" width="20" height="5" />
<rect class="code" x="1" y="190" width="2" height="5" />
<rect class="code" x="0" y="210" width="30" height="5" />
<rect class="code" x="0" y="230" width="45" height="5" />
<rect class="code" x="0" y="240" width="50" height="5" />
<rect class="code" x="0" y="250" width="45" height="5" />
<rect class="code" x="0" y="260" width="49" height="5" />
<rect class="code" x="0" y="270" width="50" height="5" />
<rect class="code" x="0" y="290" width="27" height="5" />
<rect class="code" x="0" y="300" width="38" height="5" />
<rect class="code" x="0" y="310" width="35" height="5" />
<rect class="code" x="0" y="320" width="20" height="5" />
<rect class="code" x="0" y="330" width="31" height="5" />
<rect class="code" x="0" y="340" width="27" height="5" />
<rect class="code" x="0" y="350" width="26" height="5" />
<rect class="code" x="0" y="360" width="27" height="5" />
<rect class="code" x="0" y="370" width="29" height="5" />
<rect class="code" x="0" y="380" width="22" height="5" />
<rect class="code" x="0" y="390" width="35" height="5" />
<rect class="code" x="0" y="410" width="57" height="5" />
<rect class="code" x="0" y="430" width="3" height="5" />
<rect class="code" x="1" y="440" width="41" height="5" />
<rect class="code" x="1" y="450" width="2" height="5" />
<rect class="code" x="0" y="460" width="62" height="5" />
<rect class="code" x="0" y="470" width="61" height="5" />
<rect class="code" x="0" y="480" width="24" height="5" />
<rect class="code" x="0" y="490" width="26" height="5" />
<rect class="code" x="4" y="500" width="120" height="5" />
<rect class="code" x="4" y="510" width="120" height="5" />
<rect class="code" x="4" y="520" width="126" height="5" />
<rect class="code" x="4" y="530" width="171" height="5" />
<rect class="code" x="4" y="540" width="120" height="5" />
<rect class="code" x="4" y="550" width="126" height="5" />
<rect class="code" x="4" y="560" width="171" height="5" />
<rect class="code" x="4" y="570" width="134" height="5" />
<rect class="code" x="4" y="580" width="116" height="5" />
<rect class="code" x="4" y="600" width="32" height="5" />
<rect class="code" x="4" y="620" width="31" height="5" />
<rect class="code" x="4" y="640" width="42" height="5" />
<rect class="code" x="4" y="660" width="31" height="5" />
<rect class="code" x="4" y="680" width="30" height="5" />
<rect class="code" x="4" y="700" width="31" height="5" />
<rect class="code" x="4" y="720" width="31" height="5" />
<rect class="code" x="4" y="740" width="31" height="5" />
<rect class="code" x="4" y="760" width="34" height="5" />
<rect class="code" x="4" y="780" width="47" height="5" />
<rect class="code" x="4" y="790" width="27" height="5" />
<rect class="code" x="4" y="810" width="24" height="5" />
<rect class="code" x="4" y="820" width="27" height="5" />
<rect class="code" x="4" y="840" width="28" height="5" />
<rect class="code" x="4" y="860" width="71" height="5" />
<rect class="code" x="4" y="870" width="27" height="5" />
<rect class="code" x="4" y="890" width="59" height="5" />
<rect class="code" x="4" y="900" width="81" height="5" />
<rect class="code" x="4" y="920" width="39" height="5" />
<rect class="code" x="4" y="930" width="44" height="5" />
<rect class="code" x="4" y="950" width="3" height="5" />
<rect class="code" x="5" y="960" width="80" height="5" />
<rect class="code" x="5" y="970" width="72" height="5" />
<rect class="code" x="5" y="980" width="2" height="5" />
<rect class="code" x="4" y="990" width="8" height="5" />
<rect class="code" x="8" y="1000" width="39" height="5" />
<rect class="code" x="8" y="1010" width="51" height="5" />
<rect class="code" x="8" y="1020" width="74" height="5" />
<rect class="code" x="12" y="1030" width="38" height="5" />
<rect class="code" x="8" y="1040" width="2" height="5" />
<rect class="code" x="8" y="1050" width="66" height="5" />
<rect class="code" x="4" y="1060" width="2" height="5" />
<rect class="code" x="4" y="1080" width="39" height="5" />
<rect class="code" x="8" y="1090" width="25" height="5" />
<rect class="code" x="8" y="1100" width="20" height="5" />
<rect class="code" x="8" y="1110" width="41" height="5" />
<rect class="code" x="12" y="1120" width="69" height="5" />
<rect class="code" x="8" y="1130" width="8" height="5" />
<rect class="code" x="12" y="1140" width="83" height="5" />
<rect class="code" x="8" y="1150" width="2" height="5" />
<rect class="code" x="8" y="1170" width="41" height="5" />
<rect class="code" x="12" y="1180" width="71" height="5" />
<rect class="code" x="8" y="1190" width="8" height="5" />
<rect class="code" x="12" y="1200" width="40" height="5" />
<rect class="code" x="8" y="1210" width="2" height="5" />
<rect class="code" x="8" y="1230" width="44" height="5" />
<rect class="code" x="12" y="1240" width="75" height="5" />
<rect class="code" x="8" y="1250" width="8" height="5" />
<rect class="code" x="12" y="1260" width="44" height="5" />
<rect class="code" x="8" y="1270" width="2" height="5" />
<rect class="code" x="8" y="1290" width="44" height="5" />
<rect class="code" x="12" y="1300" width="75" height="5" />
<rect class="code" x="8" y="1310" width="8" height="5" />
<rect class="code" x="12" y="1320" width="42" height="5" />
<rect class="code" x="8" y="1330" width="2" height="5" />
<rect class="code" x="8" y="1350" width="57" height="5" />
<rect class="code" x="8" y="1360" width="35" height="5" />
<rect class="code" x="12" y="1370" width="39" height="5" />
<rect class="code" x="12" y="1380" width="50" height="5" />
<rect class="code" x="12" y="1390" width="44" height="5" />
<rect class="code" x="16" y="1400" width="47" height="5" />
<rect class="code" x="16" y="1410" width="102" height="5" />
<rect class="code" x="12" y="1420" width="2" height="5" />
<rect class="code" x="8" y="1430" width="8" height="5" />
<rect class="code" x="12" y="1440" width="49" height="5" />
<rect class="code" x="12" y="1450" width="123" height="5" />
<rect class="code" x="8" y="1460" width="2" height="5" />
<rect class="code" x="8" y="1470" width="48" height="5" />
<rect class="code" x="12" y="1480" width="82" height="5" />
<rect class="code" x="8" y="1490" width="8" height="5" />
<rect class="code" x="12" y="1500" width="22" height="5" />
<rect class="code" x="8" y="1510" width="2" height="5" />
<rect class="code" x="8" y="1520" width="57" height="5" />
<rect class="code" x="8" y="1530" width="35" height="5" />
<rect class="code" x="12" y="1540" width="39" height="5" />
<rect class="code" x="12" y="1550" width="44" height="5" />
<rect class="code" x="16" y="1560" width="47" height="5" />
<rect class="code" x="12" y="1570" width="2" height="5" />
<rect class="code" x="8" y="1580" width="8" height="5" />
<rect class="code" x="12" y="1590" width="24" height="5" />
<rect class="code" x="8" y="1600" width="2" height="5" />
<rect class="code" x="8" y="1610" width="41" height="5" />
<rect class="code" x="12" y="1620" width="69" height="5" />
<rect class="code" x="8" y="1630" width="8" height="5" />
<rect class="code" x="12" y="1640" width="36" height="5" />
<rect class="code" x="8" y="1650" width="2" height="5" />
<rect class="code" x="8" y="1670" width="39" height="5" />
<rect class="code" x="12" y="1680" width="66" height="5" />
<rect class="code" x="8" y="1690" width="8" height="5" />
<rect class="code" x="12" y="1700" width="15" height="5" />
<rect class="code" x="8" y="1710" width="2" height="5" />
<rect class="code" x="8" y="1730" width="34" height="5" />
<rect class="code" x="8" y="1740" width="34" height="5" />
<rect class="code" x="8" y="1750" width="42" height="5" />
<rect class="code" x="4" y="1760" width="2" height="5" />
<rect class="code" x="4" y="1780" width="3" height="5" />
<rect class="code" x="5" y="1790" width="46" height="5" />
<rect class="code" x="5" y="1800" width="2" height="5" />
<rect class="code" x="4" y="1810" width="28" height="5" />
<rect class="code" x="8" y="1820" width="21" height="5" />
<rect class="code" x="4" y="1830" width="2" height="5" />
<rect class="code" x="4" y="1850" width="3" height="5" />
<rect class="code" x="5" y="1860" width="20" height="5" />
<rect class="code" x="5" y="1870" width="2" height="5" />
<rect class="code" x="4" y="1880" width="27" height="5" />
<rect class="code" x="8" y="1890" width="17" height="5" />
<rect class="code" x="4" y="1900" width="2" height="5" />
<rect class="code" x="4" y="1920" width="3" height="5" />
<rect class="code" x="5" y="1930" width="26" height="5" />
<rect class="code" x="5" y="1940" width="2" height="5" />
<rect class="code" x="4" y="1950" width="30" height="5" />
<rect class="code" x="8" y="1960" width="22" height="5" />
<rect class="code" x="4" y="1970" width="2" height="5" />
<rect class="code" x="4" y="1990" width="3" height="5" />
<rect class="code" x="5" y="2000" width="61" height="5" />
<rect class="code" x="5" y="2010" width="2" height="5" />
<rect class="code" x="4" y="2020" width="38" height="5" />
<rect class="code" x="8" y="2030" width="28" height="5" />
<rect class="code" x="4" y="2040" width="2" height="5" />
<rect class="code" x="4" y="2060" width="3" height="5" />
<rect class="code" x="5" y="2070" width="39" height="5" />
<rect class="code" x="5" y="2080" width="2" height="5" />
<rect class="code" x="4" y="2090" width="27" height="5" />
<rect class="code" x="8" y="2100" width="17" height="5" />
<rect class="code" x="4" y="2110" width="2" height="5" />
<rect class="code" x="4" y="2130" width="3" height="5" />
<rect class="code" x="5" y="2140" width="81" height="5" />
<rect class="code" x="5" y="2150" width="2" height="5" />
<rect class="code" x="5" y="2160" width="73" height="5" />
<rect class="code" x="5" y="2170" width="2" height="5" />
<rect class="code" x="4" y="2180" width="46" height="5" />
<rect class="code" x="8" y="2190" width="42" height="5" />
<rect class="code" x="4" y="2200" width="2" height="5" />
<rect class="code" x="4" y="2220" width="3" height="5" />
<rect class="code" x="5" y="2230" width="109" height="5" />
<rect class="code" x="5" y="2240" width="49" height="5" />
<rect class="code" x="5" y="2250" width="2" height="5" />
<rect class="code" x="5" y="2260" width="68" height="5" />
<rect class="code" x="5" y="2270" width="2" height="5" />
<rect class="code" x="4" y="2280" width="36" height="5" />
<rect class="code" x="8" y="2290" width="5" height="5" />
<rect class="code" x="12" y="2300" width="49" height="5" />
<rect class="code" x="16" y="2310" width="56" height="5" />
<rect class="code" x="20" y="2320" width="37" height="5" />
<rect class="code" x="20" y="2330" width="50" height="5" />
<rect class="code" x="20" y="2340" width="19" height="5" />
<rect class="code" x="24" y="2350" width="48" height="5" />
<rect class="code" x="24" y="2360" width="12" height="5" />
<rect class="code" x="20" y="2370" width="2" height="5" />
<rect class="code" x="20" y="2380" width="16" height="5" />
<rect class="code" x="20" y="2390" width="28" height="5" />
<rect class="code" x="16" y="2400" width="2" height="5" />
<rect class="code" x="16" y="2410" width="12" height="5" />
<rect class="code" x="12" y="2420" width="45" height="5" />
<rect class="code" x="16" y="2430" width="28" height="5" />
<rect class="code" x="16" y="2440" width="29" height="5" />
<rect class="code" x="16" y="2450" width="14" height="5" />
<rect class="code" x="20" y="2460" width="12" height="5" />
<rect class="code" x="16" y="2470" width="2" height="5" />
<rect class="code" x="16" y="2480" width="37" height="5" />
<rect class="code" x="16" y="2490" width="41" height="5" />
<rect class="code" x="16" y="2500" width="36" height="5" />
<rect class="code" x="16" y="2510" width="48" height="5" />
<rect class="code" x="16" y="2520" width="28" height="5" />
<rect class="code" x="20" y="2530" width="12" height="5" />
<rect class="code" x="16" y="2540" width="2" height="5" />
<rect class="code" x="16" y="2550" width="68" height="5" />
<rect class="code" x="12" y="2560" width="8" height="5" />
<rect class="code" x="16" y="2570" width="71" height="5" />
<rect class="code" x="16" y="2580" width="12" height="5" />
<rect class="code" x="12" y="2590" width="2" height="5" />
<rect class="code" x="8" y="2600" width="36" height="5" />
<rect class="code" x="12" y="2610" width="37" height="5" />
<rect class="code" x="12" y="2620" width="12" height="5" />
<rect class="code" x="8" y="2630" width="33" height="5" />
<rect class="code" x="12" y="2640" width="12" height="5" />
<rect class="code" x="8" y="2650" width="2" height="5" />
<rect class="code" x="4" y="2660" width="2" height="5" />
<rect class="code" x="4" y="2680" width="3" height="5" />
<rect class="code" x="5" y="2690" width="22" height="5" />
<rect class="code" x="5" y="2700" width="2" height="5" />
<rect class="code" x="4" y="2710" width="26" height="5" />
<rect class="code" x="8" y="2720" width="18" height="5" />
<rect class="code" x="4" y="2730" width="2" height="5" />
<rect class="code" x="4" y="2750" width="3" height="5" />
<rect class="code" x="5" y="2760" width="29" height="5" />
<rect class="code" x="5" y="2770" width="2" height="5" />
<rect class="code" x="4" y="2780" width="27" height="5" />
<rect class="code" x="8" y="2790" width="19" height="5" />
<rect class="code" x="4" y="2800" width="2" height="5" />
<rect class="code" x="4" y="2820" width="27" height="5" />
<rect class="code" x="8" y="2830" width="19" height="5" />
<rect class="code" x="4" y="2840" width="2" height="5" />
<rect class="code" x="4" y="2860" width="23" height="5" />
<rect class="code" x="8" y="2870" width="15" height="5" />
<rect class="code" x="4" y="2880" width="2" height="5" />
<rect class="code" x="4" y="2900" width="23" height="5" />
<rect class="code" x="8" y="2910" width="15" height="5" />
<rect class="code" x="4" y="2920" width="2" height="5" />
<rect class="code" x="4" y="2940" width="27" height="5" />
<rect class="code" x="8" y="2950" width="19" height="5" />
<rect class="code" x="4" y="2960" width="2" height="5" />
<rect class="code" x="4" y="2980" width="24" height="5" />
<rect class="code" x="8" y="2990" width="16" height="5" />
<rect class="code" x="4" y="3000" width="2" height="5" />
<rect class="code" x="4" y="3020" width="3" height="5" />
<rect class="code" x="5" y="3030" width="66" height="5" />
<rect class="code" x="5" y="3040" width="2" height="5" />
<rect class="code" x="4" y="3050" width="23" height="5" />
<rect class="code" x="8" y="3060" width="15" height="5" />
<rect class="code" x="4" y="3070" width="2" height="5" />
<rect class="code" x="4" y="3090" width="57" height="5" />
<rect class="code" x="4" y="3100" width="23" height="5" />
<rect class="code" x="8" y="3110" width="15" height="5" />
<rect class="code" x="4" y="3120" width="2" height="5" />
<rect class="code" x="4" y="3140" width="3" height="5" />
<rect class="code" x="5" y="3150" width="48" height="5" />
<rect class="code" x="5" y="3160" width="5" height="5" />
<rect class="code" x="5" y="3170" width="66" height="5" />
<rect class="code" x="5" y="3180" width="6" height="5" />
<rect class="code" x="5" y="3190" width="80" height="5" />
<rect class="code" x="5" y="3200" width="81" height="5" />
<rect class="code" x="5" y="3210" width="79" height="5" />
<rect class="code" x="5" y="3220" width="62" height="5" />
<rect class="code" x="5" y="3230" width="83" height="5" />
<rect class="code" x="5" y="3240" width="62" height="5" />
<rect class="code" x="5" y="3250" width="86" height="5" />
<rect class="code" x="5" y="3260" width="70" height="5" />
<rect class="code" x="5" y="3270" width="95" height="5" />
<rect class="code" x="5" y="3280" width="7" height="5" />
<rect class="code" x="5" y="3290" width="2" height="5" />
<rect class="code" x="4" y="3300" width="68" height="5" />
<rect class="code" x="8" y="3310" width="58" height="5" />
<rect class="code" x="4" y="3320" width="2" height="5" />
<rect class="code" x="0" y="3330" width="2" height="5" />
</svg>