<svg xmlns="http://www.w3.org/2000/svg" width="200" height="5160" viewBox="0 0 100 2580">
<style>.code{fill:#333}</style>
<rect class="code" x="0" y="0" width="78" height="5" />
<rect class="code" x="0" y="20" width="80" height="5" />
<rect class="code" x="0" y="30" width="2" height="5" />
<rect class="code" x="0" y="40" width="64" height="5" />
<rect class="code" x="0" y="50" width="2" height="5" />
<rect class="code" x="0" y="60" width="69" height="5" />
<rect class="code" x="0" y="70" width="68" height="5" />
<rect class="code" x="0" y="80" width="2" height="5" />
<rect class="code" x="0" y="90" width="59" height="5" />
<rect class="code" x="0" y="100" width="78" height="5" />
<rect class="code" x="0" y="110" width="2" height="5" />
<rect class="code" x="0" y="120" width="80" height="5" />
<rect class="code" x="0" y="130" width="2" height="5" />
<rect class="code" x="0" y="140" width="35" height="5" />
<rect class="code" x="0" y="150" width="2" height="5" />
<rect class="code" x="0" y="160" width="80" height="5" />
<rect class="code" x="0" y="180" width="31" height="5" />
<rect class="code" x="0" y="190" width="39" height="5" />
<rect class="code" x="0" y="200" width="30" height="5" />
<rect class="code" x="0" y="210" width="22" height="5" />
<rect class="code" x="0" y="230" width="74" height="5" />
<rect class="code" x="0" y="240" width="76" height="5" />
<rect class="code" x="0" y="250" width="3" height="5" />
<rect class="code" x="0" y="260" width="21" height="5" />
<rect class="code" x="0" y="270" width="64" height="5" />
<rect class="code" x="0" y="280" width="3" height="5" />
<rect class="code" x="0" y="290" width="20" height="5" />
<rect class="code" x="0" y="300" width="18" height="5" />
<rect class="code" x="0" y="310" width="38" height="5" />
<rect class="code" x="0" y="320" width="39" height="5" />
<rect class="code" x="0" y="330" width="3" height="5" />
<rect class="code" x="0" y="340" width="77" height="5" />
<rect class="code" x="0" y="350" width="43" height="5" />
<rect class="code" x="0" y="360" width="65" height="5" />
<rect class="code" x="2" y="370" width="25" height="5" />
<rect class="code" x="2" y="380" width="76" height="5" />
<rect class="code" x="2" y="390" width="53" height="5" />
<rect class="code" x="0" y="400" width="2" height="5" />
<rect class="code" x="0" y="420" width="30" height="5" />
<rect class="code" x="0" y="430" width="53" height="5" />
<rect class="code" x="2" y="440" width="36" height="5" />
<rect class="code" x="2" y="450" width="53" height="5" />
<rect class="code" x="2" y="460" width="21" height="5" />
<rect class="code" x="2" y="470" width="4" height="5" />
<rect class="code" x="4" y="480" width="41" height="5" />
<rect class="code" x="4" y="490" width="52" height="5" />
<rect class="code" x="36" y="500" width="34" height="5" />
<rect class="code" x="4" y="520" width="20" height="5" />
<rect class="code" x="4" y="530" width="26" height="5" />
<rect class="code" x="4" y="540" width="21" height="5" />
<rect class="code" x="6" y="550" width="71" height="5" />
<rect class="code" x="4" y="560" width="24" height="5" />
<rect class="code" x="4" y="570" width="55" height="5" />
<rect class="code" x="4" y="590" width="35" height="5" />
<rect class="code" x="4" y="600" width="16" height="5" />
<rect class="code" x="4" y="610" width="18" height="5" />
<rect class="code" x="4" y="620" width="34" height="5" />
<rect class="code" x="24" y="630" width="42" height="5" />
<rect class="code" x="6" y="640" width="15" height="5" />
<rect class="code" x="6" y="650" width="6" height="5" />
<rect class="code" x="4" y="660" width="2" height="5" />
<rect class="code" x="4" y="680" width="36" height="5" />
<rect class="code" x="4" y="690" width="34" height="5" />
<rect class="code" x="4" y="700" width="25" height="5" />
<rect class="code" x="6" y="710" width="21" height="5" />
<rect class="code" x="6" y="720" width="26" height="5" />
<rect class="code" x="6" y="730" width="39" height="5" />
<rect class="code" x="10" y="740" width="38" height="5" />
<rect class="code" x="8" y="750" width="27" height="5" />
<rect class="code" x="6" y="760" width="47" height="5" />
<rect class="code" x="8" y="770" width="28" height="5" />
<rect class="code" x="6" y="780" width="8" height="5" />
<rect class="code" x="8" y="790" width="62" height="5" />
<rect class="code" x="8" y="800" width="15" height="5" />
<rect class="code" x="6" y="810" width="2" height="5" />
<rect class="code" x="6" y="830" width="27" height="5" />
<rect class="code" x="8" y="840" width="40" height="5" />
<rect class="code" x="6" y="860" width="19" height="5" />
<rect class="code" x="8" y="870" width="30" height="5" />
<rect class="code" x="4" y="880" width="2" height="5" />
<rect class="code" x="4" y="900" width="65" height="5" />
<rect class="code" x="4" y="910" width="69" height="5" />
<rect class="code" x="4" y="920" width="18" height="5" />
<rect class="code" x="4" y="930" width="69" height="5" />
<rect class="code" x="52" y="940" width="21" height="5" />
<rect class="code" x="52" y="950" width="22" height="5" />
<rect class="code" x="4" y="960" width="23" height="5" />
<rect class="code" x="6" y="970" width="53" height="5" />
<rect class="code" x="4" y="980" width="31" height="5" />
<rect class="code" x="4" y="1000" width="21" height="5" />
<rect class="code" x="4" y="1010" width="31" height="5" />
<rect class="code" x="4" y="1030" width="35" height="5" />
<rect class="code" x="4" y="1040" width="18" height="5" />
<rect class="code" x="4" y="1060" width="42" height="5" />
<rect class="code" x="2" y="1070" width="32" height="5" />
<rect class="code" x="2" y="1090" width="35" height="5" />
<rect class="code" x="2" y="1100" width="19" height="5" />
<rect class="code" x="2" y="1110" width="45" height="5" />
<rect class="code" x="2" y="1120" width="25" height="5" />
<rect class="code" x="2" y="1130" width="28" height="5" />
<rect class="code" x="6" y="1140" width="47" height="5" />
<rect class="code" x="30" y="1150" width="33" height="5" />
<rect class="code" x="4" y="1160" width="15" height="5" />
<rect class="code" x="2" y="1170" width="2" height="5" />
<rect class="code" x="2" y="1190" width="25" height="5" />
<rect class="code" x="2" y="1200" width="20" height="5" />
<rect class="code" x="2" y="1210" width="30" height="5" />
<rect class="code" x="4" y="1220" width="15" height="5" />
<rect class="code" x="6" y="1230" width="52" height="5" />
<rect class="code" x="6" y="1240" width="41" height="5" />
<rect class="code" x="6" y="1260" width="15" height="5" />
<rect class="code" x="4" y="1270" width="2" height="5" />
<rect class="code" x="4" y="1290" width="29" height="5" />
<rect class="code" x="4" y="1300" width="29" height="5" />
<rect class="code" x="4" y="1310" width="27" height="5" />
<rect class="code" x="6" y="1320" width="37" height="5" />
<rect class="code" x="4" y="1330" width="4" height="5" />
<rect class="code" x="6" y="1340" width="25" height="5" />
<rect class="code" x="2" y="1350" width="8" height="5" />
<rect class="code" x="4" y="1360" width="37" height="5" />
<rect class="code" x="2" y="1370" width="2" height="5" />
<rect class="code" x="2" y="1390" width="26" height="5" />
<rect class="code" x="4" y="1400" width="15" height="5" />
<rect class="code" x="2" y="1420" width="68" height="5" />
<rect class="code" x="51" y="1430" width="24" height="5" />
<rect class="code" x="51" y="1440" width="26" height="5" />
<rect class="code" x="0" y="1450" width="2" height="5" />
<rect class="code" x="0" y="1470" width="66" height="5" />
<rect class="code" x="2" y="1480" width="25" height="5" />
<rect class="code" x="4" y="1490" width="15" height="5" />
<rect class="code" x="2" y="1510" width="19" height="5" />
<rect class="code" x="4" y="1520" width="32" height="5" />
<rect class="code" x="2" y="1540" width="70" height="5" />
<rect class="code" x="2" y="1550" width="54" height="5" />
<rect class="code" x="2" y="1560" width="54" height="5" />
<rect class="code" x="2" y="1570" width="4" height="5" />
<rect class="code" x="4" y="1580" width="46" height="5" />
<rect class="code" x="4" y="1590" width="9" height="5" />
<rect class="code" x="6" y="1600" width="15" height="5" />
<rect class="code" x="4" y="1620" width="14" height="5" />
<rect class="code" x="6" y="1630" width="35" height="5" />
<rect class="code" x="4" y="1640" width="16" height="5" />
<rect class="code" x="2" y="1650" width="29" height="5" />
<rect class="code" x="2" y="1660" width="29" height="5" />
<rect class="code" x="0" y="1670" width="2" height="5" />
<rect class="code" x="0" y="1690" width="77" height="5" />
<rect class="code" x="0" y="1700" width="61" height="5" />
<rect class="code" x="0" y="1710" width="3" height="5" />
<rect class="code" x="0" y="1720" width="19" height="5" />
<rect class="code" x="0" y="1730" width="47" height="5" />
<rect class="code" x="0" y="1740" width="3" height="5" />
<rect class="code" x="0" y="1750" width="18" height="5" />
<rect class="code" x="0" y="1760" width="31" height="5" />
<rect class="code" x="0" y="1770" width="29" height="5" />
<rect class="code" x="0" y="1780" width="3" height="5" />
<rect class="code" x="0" y="1790" width="30" height="5" />
<rect class="code" x="0" y="1800" width="43" height="5" />
<rect class="code" x="0" y="1810" width="44" height="5" />
<rect class="code" x="0" y="1820" width="3" height="5" />
<rect class="code" x="0" y="1830" width="28" height="5" />
<rect class="code" x="0" y="1840" width="33" height="5" />
<rect class="code" x="0" y="1850" width="45" height="5" />
<rect class="code" x="15" y="1860" width="20" height="5" />
<rect class="code" x="15" y="1870" width="47" height="5" />
<rect class="code" x="15" y="1880" width="28" height="5" />
<rect class="code" x="2" y="1890" width="20" height="5" />
<rect class="code" x="2" y="1900" width="21" height="5" />
<rect class="code" x="2" y="1910" width="39" height="5" />
<rect class="code" x="2" y="1920" width="28" height="5" />
<rect class="code" x="2" y="1930" width="4" height="5" />
<rect class="code" x="4" y="1940" width="37" height="5" />
<rect class="code" x="4" y="1950" width="57" height="5" />
<rect class="code" x="4" y="1960" width="25" height="5" />
<rect class="code" x="6" y="1970" width="25" height="5" />
<rect class="code" x="6" y="1980" width="36" height="5" />
<rect class="code" x="8" y="1990" width="30" height="5" />
<rect class="code" x="8" y="2000" width="27" height="5" />
<rect class="code" x="6" y="2010" width="2" height="5" />
<rect class="code" x="6" y="2020" width="6" height="5" />
<rect class="code" x="4" y="2030" width="2" height="5" />
<rect class="code" x="4" y="2050" width="25" height="5" />
<rect class="code" x="6" y="2060" width="29" height="5" />
<rect class="code" x="6" y="2070" width="36" height="5" />
<rect class="code" x="6" y="2090" width="37" height="5" />
<rect class="code" x="6" y="2100" width="32" height="5" />
<rect class="code" x="6" y="2110" width="31" height="5" />
<rect class="code" x="8" y="2120" width="34" height="5" />
<rect class="code" x="6" y="2130" width="8" height="5" />
<rect class="code" x="8" y="2140" width="33" height="5" />
<rect class="code" x="6" y="2150" width="2" height="5" />
<rect class="code" x="6" y="2160" width="24" height="5" />
<rect class="code" x="8" y="2170" width="25" height="5" />
<rect class="code" x="8" y="2180" width="33" height="5" />
<rect class="code" x="10" y="2190" width="30" height="5" />
<rect class="code" x="8" y="2200" width="6" height="5" />
<rect class="code" x="6" y="2210" width="2" height="5" />
<rect class="code" x="6" y="2230" width="23" height="5" />
<rect class="code" x="6" y="2240" width="74" height="5" />
<rect class="code" x="53" y="2250" width="27" height="5" />
<rect class="code" x="4" y="2260" width="60" height="5" />
<rect class="code" x="15" y="2270" width="21" height="5" />
<rect class="code" x="6" y="2280" width="26" height="5" />
<rect class="code" x="6" y="2290" width="25" height="5" />
<rect class="code" x="8" y="2300" width="42" height="5" />
<rect class="code" x="10" y="2310" width="47" height="5" />
<rect class="code" x="6" y="2320" width="2" height="5" />
<rect class="code" x="6" y="2330" width="36" height="5" />
<rect class="code" x="6" y="2350" width="25" height="5" />
<rect class="code" x="6" y="2360" width="48" height="5" />
<rect class="code" x="6" y="2370" width="26" height="5" />
<rect class="code" x="8" y="2380" width="25" height="5" />
<rect class="code" x="8" y="2390" width="35" height="5" />
<rect class="code" x="10" y="2400" width="30" height="5" />
<rect class="code" x="8" y="2410" width="6" height="5" />
<rect class="code" x="6" y="2420" width="2" height="5" />
<rect class="code" x="6" y="2440" width="22" height="5" />
<rect class="code" x="6" y="2450" width="68" height="5" />
<rect class="code" x="54" y="2460" width="9" height="5" />
<rect class="code" x="54" y="2470" width="19" height="5" />
<rect class="code" x="4" y="2480" width="8" height="5" />
<rect class="code" x="6" y="2490" width="48" height="5" />
<rect class="code" x="6" y="2500" width="25" height="5" />
<rect class="code" x="6" y="2510" width="6" height="5" />
<rect class="code" x="4" y="2520" width="2" height="5" />
<rect class="code" x="4" y="2530" width="45" height="5" />
<rect class="code" x="2" y="2540" width="32" height="5" />
<rect class="code" x="2" y="2560" width="14" height="5" />
<rect class="code" x="0" y="2570" width="2" height="5" />
</svg>