<svg xmlns="http://www.w3.org/2000/svg" width="200" height="13920" viewBox="0 0 100 6960">
<style>.code{fill:#333}</style>
<rect class="code" x="0" y="0" width="93" height="5" />
<rect class="code" x="0" y="20" width="3" height="5" />
<rect class="code" x="1" y="30" width="40" height="5" />
<rect class="code" x="1" y="40" width="22" height="5" />
<rect class="code" x="1" y="50" width="2" height="5" />
<rect class="code" x="1" y="60" width="71" height="5" />
<rect class="code" x="1" y="70" width="77" height="5" />
<rect class="code" x="1" y="80" width="74" height="5" />
<rect class="code" x="1" y="90" width="2" height="5" />
<rect class="code" x="1" y="100" width="28" height="5" />
<rect class="code" x="1" y="110" width="2" height="5" />
<rect class="code" x="0" y="130" width="13" height="5" />
<rect class="code" x="0" y="150" width="41" height="5" />
<rect class="code" x="0" y="160" width="41" height="5" />
<rect class="code" x="0" y="170" width="67" height="5" />
<rect class="code" x="0" y="180" width="53" height="5" />
<rect class="code" x="0" y="190" width="61" height="5" />
<rect class="code" x="0" y="200" width="61" height="5" />
<rect class="code" x="0" y="210" width="59" height="5" />
<rect class="code" x="0" y="220" width="43" height="5" />
<rect class="code" x="0" y="230" width="53" height="5" />
<rect class="code" x="0" y="240" width="59" height="5" />
<rect class="code" x="0" y="250" width="57" height="5" />
<rect class="code" x="0" y="260" width="37" height="5" />
<rect class="code" x="0" y="270" width="49" height="5" />
<rect class="code" x="0" y="280" width="51" height="5" />
<rect class="code" x="0" y="290" width="43" height="5" />
<rect class="code" x="0" y="310" width="41" height="5" />
<rect class="code" x="0" y="320" width="69" height="5" />
<rect class="code" x="0" y="330" width="37" height="5" />
<rect class="code" x="0" y="340" width="43" height="5" />
<rect class="code" x="0" y="350" width="71" height="5" />
<rect class="code" x="0" y="360" width="33" height="5" />
<rect class="code" x="0" y="380" width="46" height="5" />
<rect class="code" x="0" y="390" width="53" height="5" />
<rect class="code" x="0" y="410" width="26" height="5" />
<rect class="code" x="0" y="420" width="22" height="5" />
<rect class="code" x="0" y="430" width="37" height="5" />
<rect class="code" x="0" y="450" width="32" height="5" />
<rect class="code" x="0" y="470" width="3" height="5" />
<rect class="code" x="1" y="480" width="40" height="5" />
<rect class="code" x="1" y="490" width="50" height="5" />
<rect class="code" x="1" y="500" width="2" height="5" />
<rect class="code" x="1" y="510" width="71" height="5" />
<rect class="code" x="1" y="520" width="2" height="5" />
<rect class="code" x="0" y="530" width="49" height="5" />
<rect class="code" x="2" y="540" width="54" height="5" />
<rect class="code" x="2" y="550" width="34" height="5" />
<rect class="code" x="4" y="560" width="46" height="5" />
<rect class="code" x="6" y="570" width="9" height="5" />
<rect class="code" x="4" y="580" width="2" height="5" />
<rect class="code" x="2" y="590" width="2" height="5" />
<rect class="code" x="2" y="600" width="55" height="5" />
<rect class="code" x="0" y="610" width="2" height="5" />
<rect class="code" x="0" y="630" width="3" height="5" />
<rect class="code" x="1" y="640" width="72" height="5" />
<rect class="code" x="1" y="650" width="19" height="5" />
<rect class="code" x="1" y="660" width="67" height="5" />
<rect class="code" x="1" y="670" width="2" height="5" />
<rect class="code" x="0" y="680" width="52" height="5" />
<rect class="code" x="2" y="690" width="17" height="5" />
<rect class="code" x="4" y="700" width="12" height="5" />
<rect class="code" x="2" y="710" width="2" height="5" />
<rect class="code" x="2" y="730" width="43" height="5" />
<rect class="code" x="4" y="740" width="33" height="5" />
<rect class="code" x="2" y="750" width="8" height="5" />
<rect class="code" x="4" y="760" width="28" height="5" />
<rect class="code" x="2" y="770" width="2" height="5" />
<rect class="code" x="0" y="780" width="2" height="5" />
<rect class="code" x="0" y="800" width="30" height="5" />
<rect class="code" x="2" y="810" width="70" height="5" />
<rect class="code" x="2" y="820" width="72" height="5" />
<rect class="code" x="2" y="830" width="54" height="5" />
<rect class="code" x="2" y="840" width="63" height="5" />
<rect class="code" x="0" y="850" width="2" height="5" />
<rect class="code" x="0" y="870" width="3" height="5" />
<rect class="code" x="1" y="880" width="52" height="5" />
<rect class="code" x="1" y="890" width="2" height="5" />
<rect class="code" x="1" y="900" width="66" height="5" />
<rect class="code" x="1" y="910" width="58" height="5" />
<rect class="code" x="1" y="920" width="48" height="5" />
<rect class="code" x="1" y="930" width="66" height="5" />
<rect class="code" x="1" y="940" width="2" height="5" />
<rect class="code" x="0" y="950" width="32" height="5" />
<rect class="code" x="2" y="960" width="16" height="5" />
<rect class="code" x="2" y="970" width="10" height="5" />
<rect class="code" x="2" y="980" width="12" height="5" />
<rect class="code" x="2" y="990" width="18" height="5" />
<rect class="code" x="2" y="1000" width="7" height="5" />
<rect class="code" x="0" y="1010" width="3" height="5" />
<rect class="code" x="2" y="1020" width="15" height="5" />
<rect class="code" x="2" y="1030" width="43" height="5" />
<rect class="code" x="4" y="1040" width="59" height="5" />
<rect class="code" x="4" y="1050" width="31" height="5" />
<rect class="code" x="4" y="1060" width="32" height="5" />
<rect class="code" x="6" y="1070" width="33" height="5" />
<rect class="code" x="6" y="1080" width="29" height="5" />
<rect class="code" x="4" y="1090" width="2" height="5" />
<rect class="code" x="4" y="1100" width="25" height="5" />
<rect class="code" x="2" y="1110" width="2" height="5" />
<rect class="code" x="2" y="1130" width="44" height="5" />
<rect class="code" x="4" y="1140" width="16" height="5" />
<rect class="code" x="4" y="1150" width="12" height="5" />
<rect class="code" x="4" y="1160" width="5" height="5" />
<rect class="code" x="4" y="1170" width="50" height="5" />
<rect class="code" x="4" y="1180" width="7" height="5" />
<rect class="code" x="2" y="1190" width="2" height="5" />
<rect class="code" x="2" y="1210" width="17" height="5" />
<rect class="code" x="4" y="1220" width="28" height="5" />
<rect class="code" x="2" y="1230" width="2" height="5" />
<rect class="code" x="2" y="1250" width="70" height="5" />
<rect class="code" x="2" y="1260" width="31" height="5" />
<rect class="code" x="4" y="1270" width="7" height="5" />
<rect class="code" x="4" y="1280" width="10" height="5" />
<rect class="code" x="4" y="1290" width="16" height="5" />
<rect class="code" x="4" y="1300" width="18" height="5" />
<rect class="code" x="4" y="1310" width="11" height="5" />
<rect class="code" x="2" y="1320" width="2" height="5" />
<rect class="code" x="0" y="1330" width="2" height="5" />
<rect class="code" x="0" y="1350" width="3" height="5" />
<rect class="code" x="1" y="1360" width="16" height="5" />
<rect class="code" x="1" y="1370" width="2" height="5" />
<rect class="code" x="1" y="1380" width="66" height="5" />
<rect class="code" x="1" y="1390" width="58" height="5" />
<rect class="code" x="1" y="1400" width="66" height="5" />
<rect class="code" x="1" y="1410" width="2" height="5" />
<rect class="code" x="0" y="1420" width="39" height="5" />
<rect class="code" x="2" y="1430" width="18" height="5" />
<rect class="code" x="2" y="1440" width="10" height="5" />
<rect class="code" x="2" y="1450" width="18" height="5" />
<rect class="code" x="2" y="1460" width="7" height="5" />
<rect class="code" x="0" y="1470" width="3" height="5" />
<rect class="code" x="2" y="1480" width="67" height="5" />
<rect class="code" x="4" y="1490" width="22" height="5" />
<rect class="code" x="4" y="1500" width="59" height="5" />
<rect class="code" x="2" y="1510" width="2" height="5" />
<rect class="code" x="2" y="1520" width="20" height="5" />
<rect class="code" x="4" y="1530" width="23" height="5" />
<rect class="code" x="4" y="1540" width="5" height="5" />
<rect class="code" x="4" y="1550" width="18" height="5" />
<rect class="code" x="4" y="1560" width="10" height="5" />
<rect class="code" x="4" y="1570" width="12" height="5" />
<rect class="code" x="4" y="1580" width="18" height="5" />
<rect class="code" x="4" y="1590" width="7" height="5" />
<rect class="code" x="2" y="1600" width="2" height="5" />
<rect class="code" x="2" y="1610" width="60" height="5" />
<rect class="code" x="0" y="1620" width="2" height="5" />
<rect class="code" x="0" y="1640" width="3" height="5" />
<rect class="code" x="1" y="1650" width="51" height="5" />
<rect class="code" x="1" y="1660" width="2" height="5" />
<rect class="code" x="1" y="1670" width="60" height="5" />
<rect class="code" x="1" y="1680" width="60" height="5" />
<rect class="code" x="1" y="1690" width="8" height="5" />
<rect class="code" x="1" y="1700" width="11" height="5" />
<rect class="code" x="1" y="1710" width="42" height="5" />
<rect class="code" x="1" y="1720" width="2" height="5" />
<rect class="code" x="0" y="1730" width="64" height="5" />
<rect class="code" x="2" y="1740" width="51" height="5" />
<rect class="code" x="2" y="1760" width="43" height="5" />
<rect class="code" x="4" y="1770" width="38" height="5" />
<rect class="code" x="2" y="1780" width="2" height="5" />
<rect class="code" x="2" y="1800" width="36" height="5" />
<rect class="code" x="2" y="1810" width="29" height="5" />
<rect class="code" x="4" y="1820" width="43" height="5" />
<rect class="code" x="2" y="1830" width="2" height="5" />
<rect class="code" x="0" y="1840" width="2" height="5" />
<rect class="code" x="0" y="1860" width="3" height="5" />
<rect class="code" x="1" y="1870" width="73" height="5" />
<rect class="code" x="1" y="1880" width="59" height="5" />
<rect class="code" x="1" y="1890" width="32" height="5" />
<rect class="code" x="1" y="1900" width="2" height="5" />
<rect class="code" x="1" y="1910" width="51" height="5" />
<rect class="code" x="1" y="1920" width="76" height="5" />
<rect class="code" x="1" y="1930" width="46" height="5" />
<rect class="code" x="1" y="1940" width="11" height="5" />
<rect class="code" x="1" y="1950" width="2" height="5" />
<rect class="code" x="0" y="1960" width="42" height="5" />
<rect class="code" x="2" y="1970" width="55" height="5" />
<rect class="code" x="2" y="1980" width="13" height="5" />
<rect class="code" x="4" y="1990" width="61" height="5" />
<rect class="code" x="4" y="2000" width="38" height="5" />
<rect class="code" x="2" y="2010" width="2" height="5" />
<rect class="code" x="0" y="2020" width="2" height="5" />
<rect class="code" x="0" y="2040" width="54" height="5" />
<rect class="code" x="2" y="2050" width="55" height="5" />
<rect class="code" x="2" y="2060" width="24" height="5" />
<rect class="code" x="4" y="2070" width="60" height="5" />
<rect class="code" x="2" y="2080" width="8" height="5" />
<rect class="code" x="4" y="2090" width="57" height="5" />
<rect class="code" x="4" y="2100" width="25" height="5" />
<rect class="code" x="2" y="2110" width="2" height="5" />
<rect class="code" x="0" y="2120" width="2" height="5" />
<rect class="code" x="0" y="2140" width="51" height="5" />
<rect class="code" x="2" y="2150" width="55" height="5" />
<rect class="code" x="2" y="2160" width="64" height="5" />
<rect class="code" x="0" y="2170" width="2" height="5" />
<rect class="code" x="0" y="2190" width="3" height="5" />
<rect class="code" x="1" y="2200" width="74" height="5" />
<rect class="code" x="1" y="2210" width="75" height="5" />
<rect class="code" x="1" y="2220" width="7" height="5" />
<rect class="code" x="1" y="2230" width="2" height="5" />
<rect class="code" x="0" y="2240" width="28" height="5" />
<rect class="code" x="0" y="2250" width="34" height="5" />
<rect class="code" x="2" y="2260" width="36" height="5" />
<rect class="code" x="0" y="2270" width="2" height="5" />
<rect class="code" x="0" y="2280" width="48" height="5" />
<rect class="code" x="0" y="2290" width="14" height="5" />
<rect class="code" x="2" y="2300" width="48" height="5" />
<rect class="code" x="0" y="2310" width="2" height="5" />
<rect class="code" x="0" y="2320" width="47" height="5" />
<rect class="code" x="2" y="2330" width="40" height="5" />
<rect class="code" x="2" y="2340" width="18" height="5" />
<rect class="code" x="0" y="2350" width="2" height="5" />
<rect class="code" x="0" y="2370" width="3" height="5" />
<rect class="code" x="1" y="2380" width="75" height="5" />
<rect class="code" x="1" y="2390" width="77" height="5" />
<rect class="code" x="1" y="2400" width="67" height="5" />
<rect class="code" x="1" y="2410" width="2" height="5" />
<rect class="code" x="1" y="2420" width="22" height="5" />
<rect class="code" x="1" y="2430" width="16" height="5" />
<rect class="code" x="1" y="2440" width="42" height="5" />
<rect class="code" x="1" y="2450" width="6" height="5" />
<rect class="code" x="1" y="2460" width="2" height="5" />
<rect class="code" x="1" y="2470" width="68" height="5" />
<rect class="code" x="1" y="2480" width="74" height="5" />
<rect class="code" x="1" y="2490" width="57" height="5" />
<rect class="code" x="1" y="2500" width="12" height="5" />
<rect class="code" x="1" y="2510" width="10" height="5" />
<rect class="code" x="1" y="2520" width="2" height="5" />
<rect class="code" x="1" y="2530" width="71" height="5" />
<rect class="code" x="1" y="2540" width="2" height="5" />
<rect class="code" x="0" y="2550" width="18" height="5" />
<rect class="code" x="2" y="2570" width="33" height="5" />
<rect class="code" x="2" y="2590" width="3" height="5" />
<rect class="code" x="3" y="2600" width="47" height="5" />
<rect class="code" x="3" y="2610" width="2" height="5" />
<rect class="code" x="2" y="2620" width="48" height="5" />
<rect class="code" x="2" y="2640" width="3" height="5" />
<rect class="code" x="3" y="2650" width="69" height="5" />
<rect class="code" x="3" y="2660" width="72" height="5" />
<rect class="code" x="3" y="2670" width="9" height="5" />
<rect class="code" x="3" y="2680" width="2" height="5" />
<rect class="code" x="3" y="2690" width="68" height="5" />
<rect class="code" x="3" y="2700" width="77" height="5" />
<rect class="code" x="3" y="2710" width="2" height="5" />
<rect class="code" x="2" y="2720" width="52" height="5" />
<rect class="code" x="4" y="2730" width="17" height="5" />
<rect class="code" x="2" y="2740" width="2" height="5" />
<rect class="code" x="2" y="2760" width="3" height="5" />
<rect class="code" x="3" y="2770" width="76" height="5" />
<rect class="code" x="3" y="2780" width="77" height="5" />
<rect class="code" x="3" y="2790" width="64" height="5" />
<rect class="code" x="3" y="2800" width="56" height="5" />
<rect class="code" x="3" y="2810" width="62" height="5" />
<rect class="code" x="3" y="2820" width="2" height="5" />
<rect class="code" x="2" y="2830" width="31" height="5" />
<rect class="code" x="6" y="2840" width="14" height="5" />
<rect class="code" x="6" y="2850" width="12" height="5" />
<rect class="code" x="6" y="2860" width="10" height="5" />
<rect class="code" x="6" y="2870" width="11" height="5" />
<rect class="code" x="4" y="2880" width="48" height="5" />
<rect class="code" x="6" y="2890" width="68" height="5" />
<rect class="code" x="6" y="2900" width="15" height="5" />
<rect class="code" x="8" y="2910" width="66" height="5" />
<rect class="code" x="6" y="2920" width="2" height="5" />
<rect class="code" x="4" y="2930" width="3" height="5" />
<rect class="code" x="4" y="2950" width="21" height="5" />
<rect class="code" x="2" y="2960" width="2" height="5" />
<rect class="code" x="2" y="2980" width="3" height="5" />
<rect class="code" x="3" y="2990" width="58" height="5" />
<rect class="code" x="3" y="3000" width="2" height="5" />
<rect class="code" x="3" y="3010" width="53" height="5" />
<rect class="code" x="3" y="3020" width="56" height="5" />
<rect class="code" x="3" y="3030" width="75" height="5" />
<rect class="code" x="3" y="3040" width="40" height="5" />
<rect class="code" x="3" y="3050" width="2" height="5" />
<rect class="code" x="2" y="3060" width="34" height="5" />
<rect class="code" x="4" y="3070" width="12" height="5" />
<rect class="code" x="4" y="3080" width="10" height="5" />
<rect class="code" x="4" y="3090" width="18" height="5" />
<rect class="code" x="4" y="3100" width="7" height="5" />
<rect class="code" x="2" y="3110" width="3" height="5" />
<rect class="code" x="4" y="3120" width="63" height="5" />
<rect class="code" x="4" y="3130" width="72" height="5" />
<rect class="code" x="4" y="3140" width="31" height="5" />
<rect class="code" x="4" y="3150" width="8" height="5" />
<rect class="code" x="6" y="3160" width="34" height="5" />
<rect class="code" x="6" y="3170" width="72" height="5" />
<rect class="code" x="6" y="3180" width="65" height="5" />
<rect class="code" x="6" y="3190" width="67" height="5" />
<rect class="code" x="6" y="3200" width="53" height="5" />
<rect class="code" x="6" y="3210" width="67" height="5" />
<rect class="code" x="8" y="3220" width="25" height="5" />
<rect class="code" x="4" y="3230" width="2" height="5" />
<rect class="code" x="4" y="3250" width="10" height="5" />
<rect class="code" x="6" y="3260" width="14" height="5" />
<rect class="code" x="8" y="3270" width="43" height="5" />
<rect class="code" x="8" y="3280" width="39" height="5" />
<rect class="code" x="8" y="3290" width="50" height="5" />
<rect class="code" x="6" y="3300" width="2" height="5" />
<rect class="code" x="6" y="3310" width="65" height="5" />
<rect class="code" x="4" y="3320" width="2" height="5" />
<rect class="code" x="4" y="3340" width="55" height="5" />
<rect class="code" x="4" y="3350" width="63" height="5" />
<rect class="code" x="4" y="3370" width="71" height="5" />
<rect class="code" x="4" y="3380" width="73" height="5" />
<rect class="code" x="4" y="3390" width="46" height="5" />
<rect class="code" x="4" y="3410" width="28" height="5" />
<rect class="code" x="6" y="3420" width="30" height="5" />
<rect class="code" x="6" y="3430" width="18" height="5" />
<rect class="code" x="6" y="3440" width="10" height="5" />
<rect class="code" x="6" y="3450" width="18" height="5" />
<rect class="code" x="6" y="3460" width="7" height="5" />
<rect class="code" x="4" y="3470" width="2" height="5" />
<rect class="code" x="4" y="3490" width="51" height="5" />
<rect class="code" x="4" y="3500" width="54" height="5" />
<rect class="code" x="4" y="3520" width="14" height="5" />
<rect class="code" x="6" y="3530" width="71" height="5" />
<rect class="code" x="4" y="3540" width="2" height="5" />
<rect class="code" x="4" y="3560" width="25" height="5" />
<rect class="code" x="2" y="3570" width="2" height="5" />
<rect class="code" x="2" y="3590" width="3" height="5" />
<rect class="code" x="3" y="3600" width="69" height="5" />
<rect class="code" x="3" y="3610" width="2" height="5" />
<rect class="code" x="3" y="3620" width="76" height="5" />
<rect class="code" x="3" y="3630" width="77" height="5" />
<rect class="code" x="3" y="3640" width="25" height="5" />
<rect class="code" x="3" y="3650" width="2" height="5" />
<rect class="code" x="3" y="3660" width="84" height="5" />
<rect class="code" x="3" y="3670" width="64" height="5" />
<rect class="code" x="3" y="3680" width="59" height="5" />
<rect class="code" x="3" y="3690" width="62" height="5" />
<rect class="code" x="3" y="3700" width="70" height="5" />
<rect class="code" x="3" y="3710" width="2" height="5" />
<rect class="code" x="2" y="3720" width="89" height="5" />
<rect class="code" x="4" y="3730" width="10" height="5" />
<rect class="code" x="6" y="3740" width="74" height="5" />
<rect class="code" x="6" y="3750" width="49" height="5" />
<rect class="code" x="4" y="3760" width="2" height="5" />
<rect class="code" x="4" y="3770" width="46" height="5" />
<rect class="code" x="6" y="3780" width="16" height="5" />
<rect class="code" x="6" y="3790" width="12" height="5" />
<rect class="code" x="6" y="3800" width="10" height="5" />
<rect class="code" x="6" y="3810" width="8" height="5" />
<rect class="code" x="4" y="3820" width="2" height="5" />
<rect class="code" x="2" y="3830" width="2" height="5" />
<rect class="code" x="2" y="3850" width="90" height="5" />
<rect class="code" x="4" y="3860" width="10" height="5" />
<rect class="code" x="6" y="3870" width="41" height="5" />
<rect class="code" x="6" y="3880" width="50" height="5" />
<rect class="code" x="6" y="3890" width="2" height="5" />
<rect class="code" x="8" y="3900" width="33" height="5" />
<rect class="code" x="10" y="3910" width="52" height="5" />
<rect class="code" x="10" y="3920" width="44" height="5" />
<rect class="code" x="8" y="3930" width="35" height="5" />
<rect class="code" x="10" y="3940" width="47" height="5" />
<rect class="code" x="10" y="3950" width="40" height="5" />
<rect class="code" x="8" y="3960" width="37" height="5" />
<rect class="code" x="8" y="3970" width="56" height="5" />
<rect class="code" x="10" y="3980" width="67" height="5" />
<rect class="code" x="10" y="3990" width="20" height="5" />
<rect class="code" x="10" y="4000" width="2" height="5" />
<rect class="code" x="6" y="4010" width="2" height="5" />
<rect class="code" x="4" y="4020" width="2" height="5" />
<rect class="code" x="4" y="4040" width="8" height="5" />
<rect class="code" x="6" y="4050" width="35" height="5" />
<rect class="code" x="6" y="4060" width="43" height="5" />
<rect class="code" x="6" y="4070" width="66" height="5" />
<rect class="code" x="6" y="4080" width="73" height="5" />
<rect class="code" x="6" y="4090" width="60" height="5" />
<rect class="code" x="6" y="4100" width="74" height="5" />
<rect class="code" x="6" y="4110" width="15" height="5" />
<rect class="code" x="4" y="4120" width="2" height="5" />
<rect class="code" x="4" y="4140" width="38" height="5" />
<rect class="code" x="6" y="4150" width="16" height="5" />
<rect class="code" x="6" y="4160" width="5" height="5" />
<rect class="code" x="6" y="4170" width="5" height="5" />
<rect class="code" x="6" y="4180" width="5" height="5" />
<rect class="code" x="6" y="4190" width="5" height="5" />
<rect class="code" x="6" y="4200" width="5" height="5" />
<rect class="code" x="6" y="4210" width="11" height="5" />
<rect class="code" x="4" y="4220" width="2" height="5" />
<rect class="code" x="4" y="4240" width="61" height="5" />
<rect class="code" x="4" y="4260" width="20" height="5" />
<rect class="code" x="6" y="4270" width="55" height="5" />
<rect class="code" x="6" y="4280" width="43" height="5" />
<rect class="code" x="6" y="4290" width="59" height="5" />
<rect class="code" x="8" y="4300" width="70" height="5" />
<rect class="code" x="8" y="4310" width="46" height="5" />
<rect class="code" x="10" y="4320" width="26" height="5" />
<rect class="code" x="8" y="4330" width="2" height="5" />
<rect class="code" x="8" y="4340" width="32" height="5" />
<rect class="code" x="10" y="4350" width="14" height="5" />
<rect class="code" x="10" y="4360" width="19" height="5" />
<rect class="code" x="10" y="4370" width="10" height="5" />
<rect class="code" x="10" y="4380" width="15" height="5" />
<rect class="code" x="8" y="4390" width="2" height="5" />
<rect class="code" x="8" y="4400" width="18" height="5" />
<rect class="code" x="6" y="4410" width="8" height="5" />
<rect class="code" x="8" y="4420" width="45" height="5" />
<rect class="code" x="6" y="4430" width="2" height="5" />
<rect class="code" x="4" y="4440" width="2" height="5" />
<rect class="code" x="4" y="4460" width="65" height="5" />
<rect class="code" x="4" y="4470" width="29" height="5" />
<rect class="code" x="6" y="4480" width="54" height="5" />
<rect class="code" x="4" y="4490" width="68" height="5" />
<rect class="code" x="4" y="4510" width="14" height="5" />
<rect class="code" x="6" y="4520" width="8" height="5" />
<rect class="code" x="8" y="4530" width="31" height="5" />
<rect class="code" x="8" y="4540" width="67" height="5" />
<rect class="code" x="8" y="4550" width="68" height="5" />
<rect class="code" x="8" y="4560" width="69" height="5" />
<rect class="code" x="8" y="4570" width="67" height="5" />
<rect class="code" x="6" y="4580" width="2" height="5" />
<rect class="code" x="6" y="4600" width="63" height="5" />
<rect class="code" x="8" y="4610" width="42" height="5" />
<rect class="code" x="8" y="4620" width="28" height="5" />
<rect class="code" x="10" y="4630" width="40" height="5" />
<rect class="code" x="12" y="4640" width="8" height="5" />
<rect class="code" x="14" y="4650" width="6" height="5" />
<rect class="code" x="14" y="4660" width="66" height="5" />
<rect class="code" x="14" y="4670" width="65" height="5" />
<rect class="code" x="14" y="4680" width="53" height="5" />
<rect class="code" x="12" y="4690" width="2" height="5" />
<rect class="code" x="12" y="4700" width="6" height="5" />
<rect class="code" x="10" y="4710" width="2" height="5" />
<rect class="code" x="10" y="4720" width="52" height="5" />
<rect class="code" x="8" y="4730" width="2" height="5" />
<rect class="code" x="6" y="4740" width="2" height="5" />
<rect class="code" x="4" y="4750" width="2" height="5" />
<rect class="code" x="4" y="4770" width="23" height="5" />
<rect class="code" x="6" y="4780" width="26" height="5" />
<rect class="code" x="6" y="4790" width="17" height="5" />
<rect class="code" x="6" y="4800" width="31" height="5" />
<rect class="code" x="4" y="4810" width="51" height="5" />
<rect class="code" x="6" y="4820" width="19" height="5" />
<rect class="code" x="6" y="4830" width="10" height="5" />
<rect class="code" x="6" y="4840" width="18" height="5" />
<rect class="code" x="6" y="4850" width="25" height="5" />
<rect class="code" x="8" y="4860" width="60" height="5" />
<rect class="code" x="10" y="4870" width="47" height="5" />
<rect class="code" x="8" y="4880" width="3" height="5" />
<rect class="code" x="8" y="4890" width="11" height="5" />
<rect class="code" x="4" y="4900" width="41" height="5" />
<rect class="code" x="4" y="4910" width="15" height="5" />
<rect class="code" x="6" y="4920" width="25" height="5" />
<rect class="code" x="4" y="4930" width="2" height="5" />
<rect class="code" x="4" y="4940" width="17" height="5" />
<rect class="code" x="2" y="4950" width="2" height="5" />
<rect class="code" x="2" y="4980" width="3" height="5" />
<rect class="code" x="3" y="4990" width="69" height="5" />
<rect class="code" x="3" y="5000" width="2" height="5" />
<rect class="code" x="3" y="5010" width="76" height="5" />
<rect class="code" x="3" y="5020" width="77" height="5" />
<rect class="code" x="3" y="5030" width="25" height="5" />
<rect class="code" x="3" y="5040" width="2" height="5" />
<rect class="code" x="3" y="5050" width="64" height="5" />
<rect class="code" x="3" y="5060" width="59" height="5" />
<rect class="code" x="3" y="5070" width="62" height="5" />
<rect class="code" x="3" y="5080" width="70" height="5" />
<rect class="code" x="3" y="5090" width="2" height="5" />
<rect class="code" x="2" y="5100" width="52" height="5" />
<rect class="code" x="4" y="5110" width="86" height="5" />
<rect class="code" x="2" y="5120" width="2" height="5" />
<rect class="code" x="2" y="5140" width="3" height="5" />
<rect class="code" x="3" y="5150" width="72" height="5" />
<rect class="code" x="3" y="5160" width="2" height="5" />
<rect class="code" x="3" y="5170" width="73" height="5" />
<rect class="code" x="3" y="5180" width="71" height="5" />
<rect class="code" x="3" y="5190" width="31" height="5" />
<rect class="code" x="3" y="5200" width="2" height="5" />
<rect class="code" x="2" y="5210" width="45" height="5" />
<rect class="code" x="4" y="5220" width="63" height="5" />
<rect class="code" x="4" y="5230" width="72" height="5" />
<rect class="code" x="4" y="5240" width="76" height="5" />
<rect class="code" x="4" y="5250" width="65" height="5" />
<rect class="code" x="4" y="5260" width="8" height="5" />
<rect class="code" x="6" y="5270" width="34" height="5" />
<rect class="code" x="6" y="5280" width="71" height="5" />
<rect class="code" x="6" y="5290" width="72" height="5" />
<rect class="code" x="6" y="5300" width="60" height="5" />
<rect class="code" x="6" y="5310" width="53" height="5" />
<rect class="code" x="6" y="5320" width="67" height="5" />
<rect class="code" x="8" y="5330" width="25" height="5" />
<rect class="code" x="4" y="5340" width="2" height="5" />
<rect class="code" x="4" y="5360" width="10" height="5" />
<rect class="code" x="6" y="5370" width="14" height="5" />
<rect class="code" x="8" y="5380" width="43" height="5" />
<rect class="code" x="8" y="5390" width="39" height="5" />
<rect class="code" x="8" y="5400" width="50" height="5" />
<rect class="code" x="6" y="5410" width="2" height="5" />
<rect class="code" x="6" y="5420" width="69" height="5" />
<rect class="code" x="4" y="5430" width="2" height="5" />
<rect class="code" x="4" y="5450" width="61" height="5" />
<rect class="code" x="4" y="5460" width="21" height="5" />
<rect class="code" x="6" y="5470" width="71" height="5" />
<rect class="code" x="6" y="5480" width="13" height="5" />
<rect class="code" x="6" y="5490" width="68" height="5" />
<rect class="code" x="6" y="5510" width="54" height="5" />
<rect class="code" x="6" y="5520" width="26" height="5" />
<rect class="code" x="8" y="5530" width="67" height="5" />
<rect class="code" x="6" y="5550" width="14" height="5" />
<rect class="code" x="8" y="5560" width="8" height="5" />
<rect class="code" x="10" y="5570" width="31" height="5" />
<rect class="code" x="10" y="5580" width="69" height="5" />
<rect class="code" x="10" y="5590" width="61" height="5" />
<rect class="code" x="10" y="5600" width="2" height="5" />
<rect class="code" x="12" y="5610" width="22" height="5" />
<rect class="code" x="14" y="5620" width="66" height="5" />
<rect class="code" x="14" y="5630" width="21" height="5" />
<rect class="code" x="14" y="5640" width="60" height="5" />
<rect class="code" x="14" y="5650" width="45" height="5" />
<rect class="code" x="10" y="5660" width="2" height="5" />
<rect class="code" x="8" y="5670" width="2" height="5" />
<rect class="code" x="6" y="5680" width="2" height="5" />
<rect class="code" x="6" y="5700" width="13" height="5" />
<rect class="code" x="4" y="5710" width="2" height="5" />
<rect class="code" x="4" y="5720" width="62" height="5" />
<rect class="code" x="4" y="5730" width="28" height="5" />
<rect class="code" x="6" y="5740" width="25" height="5" />
<rect class="code" x="6" y="5750" width="14" height="5" />
<rect class="code" x="6" y="5760" width="10" height="5" />
<rect class="code" x="6" y="5770" width="5" height="5" />
<rect class="code" x="4" y="5780" width="2" height="5" />
<rect class="code" x="4" y="5790" width="12" height="5" />
<rect class="code" x="2" y="5800" width="2" height="5" />
<rect class="code" x="2" y="5820" width="30" height="5" />
<rect class="code" x="4" y="5830" width="7" height="5" />
<rect class="code" x="4" y="5840" width="10" height="5" />
<rect class="code" x="4" y="5850" width="9" height="5" />
<rect class="code" x="4" y="5860" width="18" height="5" />
<rect class="code" x="4" y="5870" width="11" height="5" />
<rect class="code" x="2" y="5880" width="3" height="5" />
<rect class="code" x="4" y="5890" width="10" height="5" />
<rect class="code" x="6" y="5900" width="14" height="5" />
<rect class="code" x="8" y="5910" width="43" height="5" />
<rect class="code" x="8" y="5920" width="39" height="5" />
<rect class="code" x="8" y="5930" width="50" height="5" />
<rect class="code" x="6" y="5940" width="2" height="5" />
<rect class="code" x="6" y="5950" width="61" height="5" />
<rect class="code" x="4" y="5960" width="2" height="5" />
<rect class="code" x="4" y="5980" width="24" height="5" />
<rect class="code" x="6" y="5990" width="60" height="5" />
<rect class="code" x="6" y="6000" width="62" height="5" />
<rect class="code" x="8" y="6010" width="58" height="5" />
<rect class="code" x="8" y="6020" width="7" height="5" />
<rect class="code" x="6" y="6030" width="8" height="5" />
<rect class="code" x="8" y="6040" width="40" height="5" />
<rect class="code" x="10" y="6050" width="38" height="5" />
<rect class="code" x="8" y="6060" width="2" height="5" />
<rect class="code" x="8" y="6070" width="68" height="5" />
<rect class="code" x="8" y="6090" width="39" height="5" />
<rect class="code" x="8" y="6100" width="25" height="5" />
<rect class="code" x="10" y="6110" width="39" height="5" />
<rect class="code" x="10" y="6120" width="8" height="5" />
<rect class="code" x="8" y="6130" width="2" height="5" />
<rect class="code" x="8" y="6150" width="30" height="5" />
<rect class="code" x="8" y="6160" width="14" height="5" />
<rect class="code" x="10" y="6170" width="71" height="5" />
<rect class="code" x="10" y="6180" width="66" height="5" />
<rect class="code" x="10" y="6190" width="68" height="5" />
<rect class="code" x="10" y="6200" width="60" height="5" />
<rect class="code" x="10" y="6210" width="15" height="5" />
<rect class="code" x="10" y="6220" width="47" height="5" />
<rect class="code" x="12" y="6230" width="43" height="5" />
<rect class="code" x="12" y="6240" width="30" height="5" />
<rect class="code" x="12" y="6250" width="40" height="5" />
<rect class="code" x="10" y="6260" width="8" height="5" />
<rect class="code" x="12" y="6270" width="46" height="5" />
<rect class="code" x="12" y="6280" width="38" height="5" />
<rect class="code" x="12" y="6290" width="41" height="5" />
<rect class="code" x="12" y="6300" width="72" height="5" />
<rect class="code" x="12" y="6310" width="38" height="5" />
<rect class="code" x="10" y="6320" width="2" height="5" />
<rect class="code" x="8" y="6330" width="2" height="5" />
<rect class="code" x="8" y="6350" width="67" height="5" />
<rect class="code" x="8" y="6360" width="31" height="5" />
<rect class="code" x="10" y="6370" width="60" height="5" />
<rect class="code" x="10" y="6380" width="70" height="5" />
<rect class="code" x="8" y="6400" width="10" height="5" />
<rect class="code" x="10" y="6410" width="37" height="5" />
<rect class="code" x="10" y="6420" width="63" height="5" />
<rect class="code" x="10" y="6430" width="64" height="5" />
<rect class="code" x="10" y="6440" width="62" height="5" />
<rect class="code" x="10" y="6450" width="60" height="5" />
<rect class="code" x="10" y="6460" width="61" height="5" />
<rect class="code" x="10" y="6470" width="64" height="5" />
<rect class="code" x="10" y="6480" width="66" height="5" />
<rect class="code" x="10" y="6490" width="64" height="5" />
<rect class="code" x="10" y="6500" width="10" height="5" />
<rect class="code" x="8" y="6510" width="2" height="5" />
<rect class="code" x="8" y="6530" width="14" height="5" />
<rect class="code" x="10" y="6540" width="8" height="5" />
<rect class="code" x="12" y="6550" width="6" height="5" />
<rect class="code" x="12" y="6560" width="59" height="5" />
<rect class="code" x="12" y="6570" width="60" height="5" />
<rect class="code" x="12" y="6580" width="59" height="5" />
<rect class="code" x="12" y="6590" width="65" height="5" />
<rect class="code" x="12" y="6600" width="64" height="5" />
<rect class="code" x="12" y="6610" width="61" height="5" />
<rect class="code" x="12" y="6620" width="62" height="5" />
<rect class="code" x="12" y="6630" width="17" height="5" />
<rect class="code" x="12" y="6640" width="10" height="5" />
<rect class="code" x="10" y="6650" width="2" height="5" />
<rect class="code" x="8" y="6660" width="2" height="5" />
<rect class="code" x="6" y="6670" width="2" height="5" />
<rect class="code" x="4" y="6680" width="2" height="5" />
<rect class="code" x="4" y="6700" width="10" height="5" />
<rect class="code" x="6" y="6710" width="37" height="5" />
<rect class="code" x="6" y="6720" width="61" height="5" />
<rect class="code" x="8" y="6730" width="56" height="5" />
<rect class="code" x="8" y="6740" width="64" height="5" />
<rect class="code" x="8" y="6750" width="59" height="5" />
<rect class="code" x="4" y="6760" width="2" height="5" />
<rect class="code" x="4" y="6780" width="35" height="5" />
<rect class="code" x="6" y="6790" width="29" height="5" />
<rect class="code" x="8" y="6800" width="43" height="5" />
<rect class="code" x="6" y="6810" width="2" height="5" />
<rect class="code" x="6" y="6820" width="54" height="5" />
<rect class="code" x="4" y="6830" width="8" height="5" />
<rect class="code" x="6" y="6840" width="32" height="5" />
<rect class="code" x="6" y="6850" width="67" height="5" />
<rect class="code" x="4" y="6860" width="2" height="5" />
<rect class="code" x="2" y="6870" width="2" height="5" />
<rect class="code" x="0" y="6880" width="2" height="5" />
<rect class="code" x="0" y="6900" width="52" height="5" />
<rect class="code" x="2" y="6910" width="51" height="5" />
<rect class="code" x="2" y="6920" width="43" height="5" />
<rect class="code" x="0" y="6930" width="3" height="5" />
<rect class="code" x="0" y="6950" width="28" height="5" />
</svg>